<?xml version="1.0" encoding="UTF-8" standalone="no"?>
<svg
   width="80px"
   height="80px"
   viewBox="0 0 80 80"
   version="1.1"
   id="svg2"
   sodipodi:docname="CirclesStyle copy.svg"
   xml:space="preserve"
   inkscape:version="1.4.2 (f4327f4, 2025-05-13)"
   xmlns:inkscape="http://www.inkscape.org/namespaces/inkscape"
   xmlns:sodipodi="http://sodipodi.sourceforge.net/DTD/sodipodi-0.dtd"
   xmlns:xlink="http://www.w3.org/1999/xlink"
   xmlns="http://www.w3.org/2000/svg"
   xmlns:svg="http://www.w3.org/2000/svg"><sodipodi:namedview
     id="namedview2"
     pagecolor="#ffffff"
     bordercolor="#000000"
     borderopacity="0.25"
     inkscape:showpageshadow="2"
     inkscape:pageopacity="0.0"
     inkscape:pagecheckerboard="0"
     inkscape:deskcolor="#d1d1d1"
     inkscape:zoom="10.31492"
     inkscape:cx="38.342517"
     inkscape:cy="45.807432"
     inkscape:window-width="2560"
     inkscape:window-height="1369"
     inkscape:window-x="-8"
     inkscape:window-y="-8"
     inkscape:window-maximized="1"
     inkscape:current-layer="path789-+-path789-copy-Mask-Copy" /><title
     id="title1">CirclesStyle</title><defs
     id="defs1"><rect
       id="path-1"
       x="0"
       y="0"
       width="76"
       height="76"
       rx="9" /><rect
       id="path-3"
       x="0"
       y="0"
       width="76"
       height="76"
       rx="9" /><clipPath
       clipPathUnits="userSpaceOnUse"
       id="clipPath3"><use
         id="use3"
         stroke="#9939af"
         stroke-width="2"
         stroke-linecap="round"
         stroke-linejoin="round"
         xlink:href="#path-3"
         transform="translate(2.1328328,1.7953955)" /></clipPath></defs><g
     id="CirclesStyle"
     stroke="none"
     stroke-width="1"
     fill="none"
     fill-rule="evenodd"><g
       id="path789-+-path789-copy-Mask-Copy"
       transform="translate(2.000000, 2.000000)"><mask
         id="mask-2"
         fill="white"><use
           xlink:href="#path-1"
           id="use1" /></mask><use
         id="Mask"
         fill="#F5DDFA"
         xlink:href="#path-1" /><mask
         id="mask-4"
         fill="white"><use
           xlink:href="#path-3"
           id="use2" /></mask><path
         style="fill:#9939af;fill-opacity:1"
         d="m -11.531008,75.097922 c 0.001,-3.790788 0.001,-3.790788 0.260366,-3.485289 1.2976932,1.528808 5.1324195,5.217284 6.9110905,6.647512 0.7816995,0.628564 0.7816995,0.628564 -3.1954034,0.628564 -3.9771031,0 -3.9771031,0 -3.9760531,-3.790787 z m 31.810966,3.361687 C 16.381632,77.178079 13.076309,75.643347 9.5812742,73.491981 6.6288467,71.674616 4.3607662,69.932861 1.8518465,67.556225 -4.6652859,61.382712 -9.1371942,53.740018 -11.190158,45.266848 c -0.3419,-1.41112 -0.3419,-1.41112 -0.3419,-10.453545 0,-9.042426 0,-9.042426 0.23918,-10.070804 C -9.3575269,16.42127 -5.2043956,8.7650444 0.90019934,2.2647717 1.8649668,1.2374715 1.8649668,1.2374715 12.279615,1.2363689 c 10.414648,-0.0011 10.414648,-0.0011 9.615379,0.3961276 C 20.087146,2.530982 18.420109,3.525901 16.540153,4.8283664 8.1029125,10.673828 2.326126,19.235746 0.45656606,28.666248 c -0.50585361,2.551645 -0.57998658,3.41736 -0.57792311,6.748917 0.002124,3.430056 0.11551988,4.590386 0.71279363,7.293736 2.37809072,10.763594 9.91816942,19.824283 20.36878642,24.476567 10.152634,4.519631 21.942229,4.302471 31.540161,-0.580958 1.49402,-0.760158 3.08153,-1.728447 4.514878,-2.753814 1.349072,-0.965079 4.139012,-3.526217 5.244412,-4.814321 3.744308,-4.363177 6.01686,-9.477052 6.644071,-14.951017 0.211196,-1.843201 0.142735,-5.042502 -0.145205,-6.785755 -0.656066,-3.971966 -2.188783,-7.693039 -4.485623,-10.890024 -1.068995,-1.487939 -1.85247,-2.380824 -3.27796,-3.735717 -4.344631,-4.129465 -9.842188,-6.675122 -15.919722,-7.371664 -1.357816,-0.155619 -4.389388,-0.177543 -5.744937,-0.04155 -14.308778,1.43553 -24.028626,13.731675 -20.612614,26.076098 1.879646,6.79247 7.657704,11.981751 14.933845,13.412107 1.578011,0.310208 4.501699,0.393711 6.113645,0.174611 7.177639,-0.975605 12.674774,-5.673049 14.053861,-12.00939 0.302368,-1.389258 0.297389,-3.886185 -0.01041,-5.220057 -0.580384,-2.515146 -1.741047,-4.59975 -3.541761,-6.361168 -2.460672,-2.406975 -5.678241,-3.725159 -9.102507,-3.729146 -0.681223,-7.94e-4 -1.536824,0.04228 -1.901337,0.09573 -4.279589,0.627471 -7.756144,3.375913 -8.889582,7.027791 -0.338694,1.091255 -0.468832,2.344481 -0.347801,3.349306 0.39719,3.297531 2.57797,5.908067 5.758557,6.893367 1.258213,0.389777 2.782394,0.460379 4.020519,0.186237 2.465478,-0.545899 4.323584,-2.168116 4.908523,-4.285379 0.335998,-1.216187 0.220228,-2.392329 -0.343812,-3.492912 -0.78077,-1.523476 -2.35217,-2.48857 -4.051979,-2.48857 -2.090573,0 -3.658087,1.286722 -3.658087,3.002804 0,0.72587 0.157041,1.145647 0.604742,1.616494 0.959769,1.009392 2.508778,0.971237 3.069996,-0.07562 0.191668,-0.357522 0.206085,-0.452743 0.115633,-0.763714 -0.11553,-0.397185 -0.394831,-0.624628 -0.767048,-0.624628 -0.299567,0 -0.589633,0.268817 -0.506493,0.46939 0.0709,0.171048 0.195747,0.187885 0.256465,0.03459 0.03422,-0.08641 0.06936,-0.08691 0.166275,-0.0024 0.163392,0.142518 -0.02592,0.546013 -0.262869,0.560272 -0.394077,0.02372 -0.561216,-0.03409 -0.806798,-0.279047 -0.674826,-0.673101 0.0357,-1.866007 1.182738,-1.985695 0.92927,-0.09696 1.783696,0.367877 2.24415,1.220904 0.764429,1.416166 0.01632,3.172505 -1.680757,3.945937 -0.605954,0.27616 -0.672737,0.28697 -1.77272,0.28697 -1.136631,0 -1.147212,-0.0019 -1.885586,-0.339733 -1.776323,-0.812718 -2.83225,-2.45063 -2.83225,-4.393273 0,-3.684237 3.935982,-6.476013 8.166702,-5.792608 3.767529,0.608584 6.680636,3.665079 7.004779,7.349565 0.153356,1.74317 -0.179552,3.336904 -1.033686,4.948583 -2.299714,4.339366 -7.795638,6.576835 -13.15481,5.35551 C 33.19032,49.064094 31.584717,48.37025 30.210174,47.45406 29.197809,46.779277 27.641146,45.275857 26.925781,44.282003 23.393032,39.373972 23.756484,32.79424 27.829595,27.919859 c 2.767698,-3.312166 7.0712,-5.510464 11.761509,-6.007967 1.24023,-0.131552 3.909373,-0.06079 5.050844,0.133905 6.361936,1.085116 11.547617,4.787062 14.36919,10.257854 3.274668,6.349305 2.620214,13.93418 -1.724182,19.982595 -6.919564,9.633653 -20.725862,12.788286 -32.367746,7.395781 -2.777282,-1.286434 -4.788887,-2.649313 -7.150524,-4.84454 -2.436124,-2.264464 -3.845935,-4.09113 -5.350425,-6.932443 C 10.922259,45.079761 10.105979,42.590412 9.6160449,39.359337 9.3793836,37.798574 9.3789275,33.978435 9.615213,32.391299 10.126082,28.959775 11.131663,25.945121 12.758119,22.96911 16.635779,15.87395 23.376326,10.54809 31.725346,7.9826734 38.026102,6.0466298 44.60503,5.8279076 51.192527,7.3354699 62.243043,9.8644036 71.665163,17.392838 76.269646,27.372514 c 6.355388,13.774556 2.960621,29.998421 -8.593603,41.069531 -4.775164,4.575501 -10.760946,8.100003 -17.235878,10.1487 -0.941719,0.297964 -0.941719,0.297964 -14.911883,0.293504 -13.970163,-0.0045 -13.970163,-0.0045 -15.248324,-0.42464 z m 54.500661,-1.214305 c 0.982178,-0.903873 2.28077,-2.175868 2.88576,-2.826657 5.821081,-6.261738 9.790287,-13.469966 11.776286,-21.386179 0.31884,-1.2709 0.31884,-1.2709 0.325119,12.292671 0.0063,13.56357 0.0063,13.56357 -8.383332,13.56357 -8.389611,0 -8.389611,0 -6.603833,-1.643405 z M 89.5479,32.078147 C 89.118509,30.094108 88.124801,27.120332 87.104462,24.765899 82.832268,14.907816 74.895856,6.6637014 64.968266,1.7714592 63.879462,1.2349047 63.879462,1.2349047 75.242766,1.233621 86.60607,1.2323374 86.60607,1.2323374 87.46327,2.0430839 c 0.47146,0.4459106 1.184387,1.1506532 1.584282,1.5660947 0.727082,0.7553482 0.727082,0.7553482 0.703127,15.0252964 -0.02392,14.252209 -0.02418,14.268921 -0.202779,13.443672 z"
         id="path2"
         transform="translate(-2,-2)"
         clip-path="url(#clipPath3)" /><use
         id="Mask-Copy"
         stroke="#9939AF"
         stroke-width="2"
         stroke-linecap="round"
         stroke-linejoin="round"
         xlink:href="#path-3" /></g></g></svg>
