<?xml version="1.0" encoding="UTF-8" standalone="no"?>
<svg
   width="80px"
   height="80px"
   viewBox="0 0 80 80"
   version="1.1"
   id="svg2"
   sodipodi:docname="HeartStyle.svg"
   xml:space="preserve"
   inkscape:version="1.4.2 (f4327f4, 2025-05-13)"
   xmlns:inkscape="http://www.inkscape.org/namespaces/inkscape"
   xmlns:sodipodi="http://sodipodi.sourceforge.net/DTD/sodipodi-0.dtd"
   xmlns:xlink="http://www.w3.org/1999/xlink"
   xmlns="http://www.w3.org/2000/svg"
   xmlns:svg="http://www.w3.org/2000/svg"><sodipodi:namedview
     id="namedview2"
     pagecolor="#ffffff"
     bordercolor="#000000"
     borderopacity="0.25"
     inkscape:showpageshadow="2"
     inkscape:pageopacity="0.0"
     inkscape:pagecheckerboard="0"
     inkscape:deskcolor="#d1d1d1"
     inkscape:zoom="3.646875"
     inkscape:cx="-42.913453"
     inkscape:cy="19.33162"
     inkscape:window-width="2560"
     inkscape:window-height="1369"
     inkscape:window-x="-8"
     inkscape:window-y="-8"
     inkscape:window-maximized="1"
     inkscape:current-layer="path789-+-path789-copy-Mask-Copy" /><title
     id="title1">CirclesStyle</title><defs
     id="defs1"><rect
       id="path-1"
       x="0"
       y="0"
       width="76"
       height="76"
       rx="9" /><rect
       id="path-3"
       x="0"
       y="0"
       width="76"
       height="76"
       rx="9" /><clipPath
       clipPathUnits="userSpaceOnUse"
       id="clipPath3"><use
         id="use3"
         stroke="#9939af"
         stroke-width="2"
         stroke-linecap="round"
         stroke-linejoin="round"
         xlink:href="#path-3"
         transform="translate(-0.0951157,-0.1045416)" /></clipPath></defs><g
     id="CirclesStyle"
     stroke="none"
     stroke-width="1"
     fill="none"
     fill-rule="evenodd"><g
       id="path789-+-path789-copy-Mask-Copy"
       transform="translate(2.000000, 2.000000)"><mask
         id="mask-2"
         fill="white"><use
           xlink:href="#path-1"
           id="use1" /></mask><use
         id="Mask"
         fill="#F5DDFA"
         xlink:href="#path-1" /><mask
         id="mask-4"
         fill="white"><use
           xlink:href="#path-3"
           id="use2" /></mask><use
         id="Mask-Copy"
         stroke="#9939AF"
         stroke-width="2"
         stroke-linecap="round"
         stroke-linejoin="round"
         xlink:href="#path-3" /><path
         style="fill:#9939af;fill-opacity:1"
         d="m -5.7491774,72.069742 c 0,-2.388159 0.015063,-4.342106 0.033473,-4.342106 0.01841,0 0.3641543,0.276181 0.768321,0.613736 2.4061449,2.009583 5.90215802,4.676706 9.1718826,6.997267 0.7494754,0.531912 1.3874717,0.990984 1.4177697,1.02016 0.032296,0.0311 -2.3128123,0.05305 -5.66817931,0.05305 H -5.7491774 Z m 75.7042604,4.289057 c 0.0303,-0.02918 0.668294,-0.488248 1.41777,-1.02016 3.272372,-2.32244 6.766032,-4.987896 9.176361,-7.001022 l 0.739328,-0.617493 v 4.345862 4.345862 h -5.694273 c -3.338382,0 -5.671482,-0.02195 -5.639186,-0.05305 z m -32.35936,-1.36652 C 37.500045,74.932337 36.782462,74.513238 36.001094,74.060948 24.105692,67.175371 13.714811,59.053822 6.8561602,51.281166 1.7903909,45.540317 -1.7182545,39.64962 -3.6071346,33.714242 -5.5743202,27.532807 -5.7919811,21.344176 -4.2455596,15.562264 -3.8086636,13.928755 -3.272562,12.465855 -2.5345109,10.893201 -1.9257205,9.5959774 -1.4906361,8.8172504 -0.67372212,7.5627035 0.30105823,6.0657192 1.0820522,5.0970381 2.4227073,3.7221458 3.9546194,2.1511122 5.107375,1.2037354 6.8624777,0.07337967 l 0.5161404,-0.3324149 h 13.5529989 13.553 l 1.657029,0.8525026 1.65703,0.85250253 1.657029,-0.85250253 1.657029,-0.8525026 h 13.553 13.552999 l 0.516141,0.3324149 c 1.755102,1.13035573 2.907858,2.07773253 4.43977,3.64876613 1.340655,1.3748923 2.121649,2.3435734 3.096429,3.8405577 0.816914,1.2545469 1.251999,2.0332739 1.860789,3.3304975 2.464983,5.252437 3.278122,11.186636 2.367758,17.279635 -1.169332,7.826252 -5.113889,15.57832 -11.758429,23.10833 -7.071559,8.013936 -17.55799,16.137632 -30.202901,23.397777 -0.406472,0.233379 -0.745693,0.423874 -0.753824,0.423323 -0.0081,-5.51e-4 -0.09306,-0.05005 -0.188743,-0.109987 z m 1.095446,-16.225252 c 7.106734,-4.172083 13.428029,-9.69964 17.648236,-15.432223 4.687707,-6.36762 6.733401,-12.952061 5.78675,-18.62572 -0.244617,-1.466087 -0.600901,-2.580478 -1.250674,-3.91188 -0.621396,-1.273258 -1.312827,-2.23507 -2.354848,-3.275699 -1.919176,-1.916615 -4.267701,-3.037335 -7.298085,-3.482657 -0.967474,-0.142173 -3.018,-0.142199 -4.117041,-5.2e-5 -2.75218,0.355957 -5.401374,1.218513 -8.248578,2.685668 l -1.058253,0.545315 -1.058254,-0.545315 c -2.847204,-1.467155 -5.496398,-2.329711 -8.248578,-2.685668 -1.099041,-0.142147 -3.149567,-0.142121 -4.117041,5.2e-5 -3.030383,0.445322 -5.378909,1.566042 -7.298085,3.482657 -0.716214,0.715258 -1.180542,1.284698 -1.676763,2.05634 -2.23007,3.467847 -2.746847,8.083492 -1.465111,13.085799 2.338604,9.127008 11.007233,19.008155 22.823607,26.016042 0.556177,0.32985 1.021445,0.600162 1.033928,0.600694 0.01248,5.32e-4 0.416939,-0.230476 0.89879,-0.513353 z M 37.040595,48.110904 C 35.005889,46.869053 33.19639,45.412803 31.449155,43.611022 28.270622,40.333259 26.247316,36.63832 25.851326,33.38833 c -0.108344,-0.889204 -0.04603,-2.247783 0.135871,-2.962291 0.502918,-1.975464 1.749867,-3.336162 3.60639,-3.93537 0.664326,-0.214417 1.279525,-0.297745 2.174494,-0.294532 1.649083,0.0059 3.294244,0.443313 5.204287,1.383644 l 0.826308,0.406798 0.826307,-0.406798 c 1.910043,-0.940331 3.555205,-1.377724 5.204287,-1.383644 0.894969,-0.0032 1.510168,0.08011 2.174494,0.294532 1.856523,0.599208 3.103472,1.959906 3.60639,3.93537 0.181901,0.714508 0.244215,2.073087 0.135871,2.962291 -0.523802,4.298973 -3.900706,9.328351 -8.76831,13.059047 -1.170133,0.896829 -2.970471,2.067927 -3.179039,2.067927 -0.05252,0 -0.393657,-0.18198 -0.758081,-0.4044 z m 1.130507,-6.351226 c 1.333477,-0.824788 2.645763,-2.241407 3.329351,-3.594051 0.628747,-1.244129 0.782455,-2.261767 0.470652,-3.115994 -0.161092,-0.441334 -0.410195,-0.717006 -0.847413,-0.937794 -0.725723,-0.36648 -1.670225,-0.292939 -2.836389,0.220847 l -0.488627,0.215278 -0.488628,-0.215278 c -1.166164,-0.513786 -2.110666,-0.587327 -2.836389,-0.220847 -0.437218,0.220788 -0.686321,0.49646 -0.847413,0.937794 -0.311803,0.854227 -0.158095,1.871865 0.470653,3.115994 0.683587,1.352644 1.995873,2.769263 3.32935,3.594051 0.188888,0.116831 0.35648,0.212421 0.372427,0.212421 0.01595,0 0.183538,-0.09559 0.372426,-0.212421 z m -0.666391,-3.039795 c -0.284564,-0.263712 -0.45986,-0.596017 -0.45986,-0.871748 0,-0.274174 0.112653,-0.358244 0.419311,-0.312923 0.136144,0.02012 0.286675,0.03658 0.334514,0.03658 0.04784,0 0.198369,-0.01646 0.334513,-0.03658 0.159511,-0.02357 0.278075,-0.01058 0.333422,0.03654 0.119514,0.101744 0.107201,0.436806 -0.02589,0.704399 -0.112701,0.226605 -0.535218,0.662733 -0.64205,0.662733 -0.03171,0 -0.163993,-0.09855 -0.293965,-0.218996 z"
         id="path2"
         clip-path="url(#clipPath3)" /></g></g></svg>
