<?xml version="1.0" encoding="UTF-8"?>
<svg width="80px" height="80px" viewBox="0 0 80 80" version="1.1" xmlns="http://www.w3.org/2000/svg" xmlns:xlink="http://www.w3.org/1999/xlink">
    <title>LinesText</title>
    <defs>
        <rect id="path-1" x="0" y="0" width="76" height="76" rx="9"></rect>
        <rect id="path-3" x="0" y="0" width="76" height="76" rx="9"></rect>
    </defs>
    <g id="LinesText" stroke="none" stroke-width="1" fill="none" fill-rule="evenodd">
        <g id="path789-+-path789-copy-Mask-Copy" transform="translate(2.000000, 2.000000)">
            <mask id="mask-2" fill="white">
                <use xlink:href="#path-1"></use>
            </mask>
            <use id="Mask" fill="#F5DDFA" xlink:href="#path-1"></use>
            <mask id="mask-4" fill="white">
                <use xlink:href="#path-3"></use>
            </mask>
            <use id="Mask-Copy" stroke="#9939AF" stroke-width="2" stroke-linecap="round" stroke-linejoin="round" xlink:href="#path-3"></use>
            <g id="LINES" mask="url(#mask-4)" fill="#9939AF" fill-rule="nonzero">
                <g transform="translate(5.464844, 31.439453)" id="Path">
                    <polygon points="0 0.244140625 4.42382812 0.244140625 4.42382812 11.0351562 11.328125 11.0351562 11.328125 14.5605469 0 14.5605469"></polygon>
                    <polygon points="13.735625 0.244140625 18.1692188 0.244140625 18.1692188 14.5605469 13.735625 14.5605469"></polygon>
                    <polygon points="21.5923438 0.244140625 25.7232031 0.244140625 31.1138281 8.1640625 31.1138281 0.244140625 35.28375 0.244140625 35.28375 14.5605469 31.1138281 14.5605469 25.7525 6.69921875 25.7525 14.5605469 21.5923438 14.5605469"></polygon>
                    <polygon points="38.4334375 0.244140625 50.2889063 0.244140625 50.2889063 3.30078125 42.8670313 3.30078125 42.8670313 5.57617188 49.7517969 5.57617188 49.7517969 8.49609375 42.8670313 8.49609375 42.8670313 11.3183594 50.50375 11.3183594 50.50375 14.5605469 38.4334375 14.5605469"></polygon>
                    <path d="M52.3350782,9.82421875 L56.5440625,9.56054688 C56.6352084,10.2441406 56.8207552,10.764974 57.1007032,11.1230469 C57.5564323,11.702474 58.207474,11.9921875 59.0538282,11.9921875 C59.6853386,11.9921875 60.1719922,11.8440755 60.5137891,11.5478516 C60.855586,11.2516276 61.0264844,10.9082031 61.0264844,10.5175781 C61.0264844,10.1464844 60.863724,9.81445312 60.5382032,9.52148438 C60.2126823,9.22851562 59.457474,8.95182292 58.2725782,8.69140625 C56.332474,8.25520833 54.9490105,7.67578125 54.1221875,6.953125 C53.2888542,6.23046875 52.8721875,5.30924479 52.8721875,4.18945312 C52.8721875,3.45377604 53.0854037,2.75878906 53.511836,2.10449219 C53.9382683,1.45019531 54.5795443,0.935872396 55.4356641,0.561523438 C56.2917839,0.187174479 57.4652865,0 58.9561719,0 C60.785599,0 62.1804558,0.340169271 63.1407422,1.02050781 C64.1010287,1.70084635 64.6723177,2.78320312 64.8546094,4.26757812 L60.6846875,4.51171875 C60.5740105,3.8671875 60.3412631,3.3984375 59.9864453,3.10546875 C59.6316276,2.8125 59.1417188,2.66601562 58.5167188,2.66601562 C58.0023959,2.66601562 57.6150261,2.7750651 57.3546094,2.99316406 C57.0941927,3.21126302 56.9639844,3.4765625 56.9639844,3.7890625 C56.9639844,4.01692708 57.0714063,4.22200521 57.28625,4.40429688 C57.4945834,4.59309896 57.989375,4.76888021 58.770625,4.93164062 C60.7042188,5.34830729 62.0893099,5.76985677 62.9258985,6.19628906 C63.762487,6.62272135 64.371211,7.15169271 64.7520703,7.78320312 C65.1329297,8.41471354 65.3233594,9.12109375 65.3233594,9.90234375 C65.3233594,10.8203125 65.0694532,11.6666667 64.5616407,12.4414062 C64.0538282,13.2161458 63.3441927,13.8037109 62.4327344,14.2041016 C61.5212761,14.6044922 60.3721875,14.8046875 58.9854688,14.8046875 C56.550573,14.8046875 54.864375,14.3359375 53.926875,13.3984375 C52.989375,12.4609375 52.4587761,11.2695312 52.3350782,9.82421875 Z"></path>
                </g>
            </g>
        </g>
    </g>
</svg>