<?xml version="1.0" encoding="UTF-8" standalone="no"?>
<svg
   width="80px"
   height="80px"
   viewBox="0 0 80 80"
   version="1.1"
   id="svg2"
   sodipodi:docname="SpiralStyle copy.svg"
   xml:space="preserve"
   inkscape:version="1.4.2 (f4327f4, 2025-05-13)"
   xmlns:inkscape="http://www.inkscape.org/namespaces/inkscape"
   xmlns:sodipodi="http://sodipodi.sourceforge.net/DTD/sodipodi-0.dtd"
   xmlns:xlink="http://www.w3.org/1999/xlink"
   xmlns="http://www.w3.org/2000/svg"
   xmlns:svg="http://www.w3.org/2000/svg"><sodipodi:namedview
     id="namedview2"
     pagecolor="#ffffff"
     bordercolor="#000000"
     borderopacity="0.25"
     inkscape:showpageshadow="2"
     inkscape:pageopacity="0.0"
     inkscape:pagecheckerboard="0"
     inkscape:deskcolor="#d1d1d1"
     inkscape:zoom="5.1574601"
     inkscape:cx="69.898747"
     inkscape:cy="76.878927"
     inkscape:window-width="2560"
     inkscape:window-height="1369"
     inkscape:window-x="-8"
     inkscape:window-y="-8"
     inkscape:window-maximized="1"
     inkscape:current-layer="Group-2" /><title
     id="title1">SpiralStyle</title><defs
     id="defs1"><rect
       id="path-1"
       x="0"
       y="0"
       width="76"
       height="76"
       rx="9" /><rect
       id="path-3"
       x="0"
       y="0"
       width="76"
       height="76"
       rx="9" /></defs><g
     id="SpiralStyle"
     stroke="none"
     stroke-width="1"
     fill="none"
     fill-rule="evenodd"><g
       id="path789-+-path789-copy-Mask"
       transform="translate(2.000000, 2.000000)"><mask
         id="mask-2"
         fill="white"><use
           xlink:href="#path-1"
           id="use1" /></mask><use
         id="Mask"
         fill="#F5DDFA"
         xlink:href="#path-1" /><g
         id="Group-2"
         mask="url(#mask-2)"><path
           style="fill:#9939af;fill-opacity:1"
           d="M 12.662422,77.140302 C 5.4727306,73.570654 -0.65848038,68.275641 -5.4062041,61.535945 l -0.5239602,-0.743795 0,-28.857724 0,-28.8577248 H 10.368055 26.666273 l -1.13885,0.6782355 C 21.393292,6.2169944 17.941221,9.2221527 15.02267,12.89972 7.7812046,22.024449 5.5301565,34.239994 9.1473144,44.782945 12.482396,54.503724 20.215799,61.664017 29.683972,63.797661 c 3.132286,0.705857 6.679082,0.808062 9.780359,0.281832 4.853297,-0.823516 9.362711,-3.139181 12.71985,-6.531871 1.695813,-1.71377 3.079919,-3.656607 4.109866,-5.768921 2.166141,-4.442525 2.685161,-9.096483 1.536998,-13.781977 -1.050659,-4.287596 -3.784106,-8.193579 -7.396845,-10.569785 -5.845065,-3.844474 -13.335075,-3.453682 -18.274322,0.953464 -5.124828,4.572736 -5.72179,12.369236 -1.302399,17.009728 0.907623,0.953031 1.789356,1.606836 2.891241,2.143855 1.116583,0.544182 2.069222,0.820195 3.262016,0.945121 3.512632,0.367892 6.868166,-1.423733 8.405938,-4.488194 0.87846,-1.750589 0.980887,-3.940776 0.270285,-5.779512 -0.710351,-1.838087 -2.477536,-3.393056 -4.287336,-3.772484 -2.028411,-0.42526 -4.073061,0.27872 -5.226604,1.799539 -0.65858,0.868266 -0.916064,1.643509 -0.91757,2.762652 -0.0021,1.563486 0.803412,2.864787 2.178457,3.519274 0.501839,0.238863 0.614881,0.260467 1.362866,0.260467 0.757283,0 0.854442,-0.01919 1.358021,-0.268285 1.605418,-0.794106 2.127857,-2.775384 1.061805,-4.026753 -0.840259,-0.986325 -2.400416,-0.973098 -3.089646,0.02619 -0.19315,0.280041 -0.22721,0.411112 -0.22721,0.874352 0,0.474509 0.03031,0.584855 0.234559,0.853913 0.532174,0.701037 1.506774,0.712109 1.92564,0.02188 0.190991,-0.314727 0.201097,-0.557104 0.03656,-0.876801 -0.210638,-0.409268 -0.711567,-0.539136 -1.079847,-0.279956 -0.343668,0.241861 -0.176026,0.935832 0.226068,0.935832 0.174639,0 0.406963,-0.207705 0.406963,-0.363837 0,-0.159475 -0.223989,-0.315685 -0.371246,-0.258909 -0.150189,0.05791 -0.127271,0.305947 0.03323,0.359647 0.08891,0.02975 0.09127,0.0022 0.01244,-0.1458 -0.07882,-0.147982 -0.07647,-0.175541 0.01244,-0.145762 0.171816,0.05754 0.13482,0.350211 -0.04427,0.350211 -0.396846,0 -0.360032,-0.547391 0.04011,-0.59637 0.291958,-0.03574 0.507204,0.162306 0.507204,0.466668 0,0.622986 -0.749316,0.83009 -1.194017,0.330015 -0.205098,-0.230637 -0.230052,-0.311684 -0.194245,-0.630876 0.06044,-0.538755 0.39874,-0.852452 0.968921,-0.89845 0.502842,-0.04057 0.864169,0.15235 1.190892,0.63583 0.16489,0.244002 0.18789,0.361849 0.162321,0.831688 -0.02523,0.463637 -0.0679,0.59504 -0.278843,0.858689 -0.392896,0.491072 -0.867764,0.719038 -1.496086,0.718215 -1.258143,-0.0016 -2.151489,-0.967639 -2.15522,-2.330478 -0.0015,-0.532021 0.03444,-0.688789 0.265833,-1.161059 0.947584,-1.933974 3.572547,-2.256725 5.206974,-0.640219 0.809882,0.801001 1.160261,1.69211 1.156904,2.942315 -0.0035,1.315029 -0.478188,2.37901 -1.477799,3.312599 -1.010423,0.943689 -2.102122,1.359985 -3.56644,1.359985 -1.512947,0 -2.83146,-0.527905 -3.957486,-1.584493 -0.946743,-0.888361 -1.482258,-1.761639 -1.874836,-3.057345 -0.19396,-0.640165 -0.218147,-0.852158 -0.217474,-1.906082 6.08e-4,-0.953764 0.03464,-1.310374 0.173909,-1.822366 1.032469,-3.795643 4.626802,-6.303107 8.719864,-6.083117 4.787854,0.257333 8.752806,4.022697 9.570619,9.088853 0.249621,1.546339 0.124498,3.61563 -0.314152,5.195463 -1.26879,4.569646 -5.053619,8.187634 -9.862148,9.427409 -1.459675,0.376346 -1.930293,0.427299 -3.906844,0.422987 -1.721758,-0.0038 -1.956966,-0.02212 -2.930133,-0.228743 -2.58399,-0.54864 -4.883617,-1.610081 -6.999762,-3.230885 -0.726376,-0.556348 -2.260225,-2.083212 -2.887381,-2.874232 -1.980684,-2.498198 -3.308559,-5.526016 -3.873449,-8.83223 -0.204502,-1.196918 -0.249647,-4.2724 -0.08163,-5.561035 0.310522,-2.381608 0.97377,-4.583081 2.032652,-6.746842 1.084874,-2.216876 2.274538,-3.902689 4.031491,-5.712824 3.620607,-3.730201 8.287199,-6.089019 13.719738,-6.934905 1.370474,-0.213392 4.481337,-0.294965 5.957548,-0.156217 11.182576,1.051041 20.725482,8.930368 24.470959,20.205028 1.108801,3.33772 1.624167,6.607377 1.624167,10.304269 0,3.919096 -0.562583,7.358769 -1.80727,11.049773 -1.821809,5.402406 -4.700969,10.022786 -8.837463,14.18207 -2.928986,2.945122 -6.115663,5.273419 -9.799735,7.160025 L 50.27582,77.905322 H 32.239541 14.203261 Z M 81.177081,15.51037 C 79.218822,13.020728 76.125155,9.9818336 73.305516,7.7781701 71.464263,6.3391547 68.785529,4.5961199 66.618911,3.4272396 l -0.638727,-0.3445907 7.874732,-0.00297 7.874733,-0.00297 v 6.542393 c 0,3.5983158 -0.0092,6.5423148 -0.02035,6.5422198 -0.01119,-9.6e-5 -0.25069,-0.293021 -0.532219,-0.650944 z"
           id="path2"
           transform="translate(-2,-2)" /></g><mask
         id="mask-4"
         fill="white"><use
           xlink:href="#path-3"
           id="use2" /></mask><use
         id="Mask-Copy"
         stroke="#9939AF"
         stroke-width="2"
         stroke-linecap="round"
         stroke-linejoin="round"
         xlink:href="#path-3" /></g></g></svg>
