<?xml version="1.0" encoding="UTF-8"?>
<svg width="80px" height="80px" viewBox="0 0 80 80" version="1.1" xmlns="http://www.w3.org/2000/svg" xmlns:xlink="http://www.w3.org/1999/xlink">
    <title>SpiralStyle</title>
    <defs>
        <rect id="path-1" x="0" y="0" width="76" height="76" rx="9"></rect>
        <rect id="path-3" x="0" y="0" width="76" height="76" rx="9"></rect>
    </defs>
    <g id="SpiralStyle" stroke="none" stroke-width="1" fill="none" fill-rule="evenodd">
        <g id="path789-+-path789-copy-Mask" transform="translate(2.000000, 2.000000)">
            <mask id="mask-2" fill="white">
                <use xlink:href="#path-1"></use>
            </mask>
            <use id="Mask" fill="#F5DDFA" xlink:href="#path-1"></use>
            <g id="Group-2" mask="url(#mask-2)">
                <g transform="translate(-342.000000, -318.000000)">
                    <path d="M378.214828,356.195442 L377.603244,353.638177 L380.706283,350.945887 L385.122022,351.936728 L386.948431,356.195442 L386.402695,361.006218 L382.275838,365.225436 L376.845661,366.315414 L372.123616,365.060302 L367.368493,361.006218 L364.984044,355.568532 L364.984044,350.074124 L366.766342,344.564116 L371.120282,338.979851 L376.845661,335.684009 L384.073873,334.712261 L392.140605,335.684009 L397.596824,338.979851 L403.122068,344.564116 L406.938134,353.638177 L407.900459,363.019572 L405.087256,372.882283 L399.910787,380.726329 L390.995675,387.823774 L376.845661,391.783381 L363.835828,390.613489 L350.124429,383.046409 L340.397459,372.273618 L335.985371,361.858802 L334.29555,350.074124 L335.243632,338.212451 L338.573241,328.388054 C338.118129,324.020185 338.404806,321.054354 339.433273,319.49056 C340.461739,317.926766 343.018943,316.568447 347.104883,315.415604 L359.501895,305.859414 L375.251889,299.791737 L389.776973,298.670742 L403.122068,300.552569 L414.798158,304.793885 L425.802263,312.159537 L435.946668,322.041953 L442.612093,332.865466 L447.632111,345.227062 L447.632111,384.761715 L439.783733,402.36209 L420.757092,424.554619 L451.657064,424.554619 L470.121798,357.457409 L447.632111,292.511421 L435.946668,283.584728 L345.067229,283.584728 L335.985371,290.962929 L325.065607,302.901048 L317.788849,314.093782 L313.726175,324.862571 L310.815127,335.684009 L310.815127,361.858802 L315.81534,375.887553 L322.342058,387.823774 L333.095002,399.263665 L347.104883,408.355379 L364.984044,413.083794 L384.073873,412.176256 L395.155548,408.144008 L399.910787,406.413737 L411.45249,397.158129 L420.757092,384.761715 L425.802263,368.751479 L424.654677,351.936728 L418.882142,338.979851 L409.451353,328.388054 C406.242395,326.360212 403.728984,324.920513 401.911122,324.068958 C400.093259,323.217404 397.247029,322.146445 393.37243,320.856084 L380.706283,320.856084 L367.368493,324.862571 L357.510215,334.712261 L352.650055,346.005278 L352.650055,357.457409 L356.747276,367.355176 L362.306164,372.273618 L368.528174,375.887553 L378.214828,377.487994 L386.402695,374.649312 L393.37243,367.355176 L395.438845,360.125782 L393.37243,350.945887 L386.402695,346.005278 L379.223619,346.005278 L373.817378,350.074124 L373.055022,355.568532 L375.251889,360.125782 L379.223619,361.006218 L382.275838,358.778165 L382.275838,355.568532 L380.706283,355.568532 C380.360349,356.359019 380.04533,356.790006 379.761228,356.861493 C379.477125,356.93298 378.961658,356.710963 378.214828,356.195442 Z" id="Path" stroke="none" fill="#9939AF" fill-rule="evenodd"></path>
                    <path d="M380.374678,354.980963 C380.646656,355.429993 380.596219,355.863552 380.559482,356.113518 C380.452544,356.841388 379.570239,357.081926 378.955122,356.915083 C377.569901,356.539348 377.168621,354.851178 377.603244,353.638177 C378.439648,351.303784 381.337114,350.686819 383.436945,351.571381 C387.070274,353.101947 387.966198,357.684687 386.402695,361.006218 C383.897315,366.328739 377.061739,367.570935 372.123616,365.060302 C364.656503,361.263853 362.990606,351.549791 366.766342,344.564116 C372.222622,334.469165 385.545205,332.300578 395.078833,337.69076 C408.363012,345.201509 411.126176,362.89932 403.715152,375.502422 C393.692659,392.546531 370.726198,395.99424 354.446741,386.136433 C332.973604,373.133711 328.734673,343.999256 341.534695,323.436886 C343.157088,320.830623 328.854628,318.627117 330.830136,316.433559 C348.982563,296.27753 396.935485,293.345909 419.987507,307.992104 C452.402884,328.587346 458.546719,373.199958 438.280307,404.444862 C412.980898,443.449192 358.887606,450.716008 321.131439,425.858325 C274.644954,395.252794 266.11713,330.541196 296.24549,285.514885 C332.891013,230.748821 409.627025,220.842054 462.865995,256.868075 C526.923018,300.214481 538.363389,390.216977 495.664086,452.494026 C444.784556,526.701869 339.926457,539.801196 267.548712,489.74504 C182.054908,430.618216 167.124521,309.568647 225.413261,226.205376 C293.721978,128.511765 432.743064,111.618598 528.280004,178.874128 C639.437509,257.126118 658.48391,415.536945 581.281319,524.184291 C492.044124,649.767953 312.263466,671.104515 189.185986,583.176263 C47.7771978,482.151859 23.9407033,279.512923 123.684429,141.024798 C237.650572,-17.2102983 465.337972,-43.6876674 620.694844,68.6878446 C686.083156,115.985705 735.029585,184.114748 760,260.735925" id="path789" stroke="#9939AF" stroke-width="2" fill="none" stroke-linecap="round"></path>
                    <path d="M316.720341,432.442678 C316.720341,432.442678 316.665258,432.505567 316.050141,432.338724 C314.66492,431.962988 314.26364,430.274819 314.698263,429.061818 C315.534667,426.727425 318.432133,426.11046 320.531964,426.995022 C324.165293,428.525587 325.061217,433.108328 323.497714,436.429859 C320.992334,441.75238 314.156758,442.994576 309.218635,440.483943 C301.751522,436.687494 300.085625,426.973432 303.861361,419.987757 C309.317641,409.892805 322.640225,407.724219 332.173852,413.114401 C345.458031,420.62515 348.221196,438.322961 340.810171,450.926063 C330.787678,467.970172 307.821217,471.417881 291.54176,461.560074 C270.068623,448.557352 265.829692,419.422897 278.629714,398.860527 C295.15985,372.306 331.521779,367.175621 357.082526,383.415745 C389.497903,404.010987 395.641738,448.623599 375.375326,479.868502 C350.075917,518.872833 295.982625,526.139649 258.226458,501.281965 C211.739973,470.676435 203.212149,405.964837 233.340509,360.938526 C269.986032,306.172462 346.722044,296.265695 399.961014,332.291716 C464.018037,375.638122 475.458408,465.640618 432.759105,527.917667 C381.879575,602.12551 277.021476,615.224837 204.643731,565.16868 C119.149927,506.041857 104.21954,384.992288 162.50828,301.629017 C230.816997,203.935405 369.838083,187.042238 465.375023,254.297769 C576.532528,332.549759 595.578929,490.960586 518.376338,599.607932 C429.139144,725.191594 249.358485,746.528156 126.281005,658.599904 C-15.1277832,557.5755 -38.9642776,354.936564 60.7794485,216.448439 C174.745591,58.2133425 402.432991,31.7359733 557.789863,144.111485 C623.178175,191.409346 672.124604,259.538389 697.095019,336.159566" id="path789-copy" stroke="#9939AF" stroke-width="2" fill="none" stroke-linecap="round" transform="translate(348.547510, 393.711820) rotate(-180.000000) translate(-348.547510, -393.711820) "></path>
                </g>
            </g>
            <mask id="mask-4" fill="white">
                <use xlink:href="#path-3"></use>
            </mask>
            <use id="Mask-Copy" stroke="#9939AF" stroke-width="2" stroke-linecap="round" stroke-linejoin="round" xlink:href="#path-3"></use>
        </g>
    </g>
</svg>