<?xml version="1.0" encoding="UTF-8" standalone="no"?>
<svg
   width="80px"
   height="80px"
   viewBox="0 0 80 80"
   version="1.1"
   id="svg2"
   sodipodi:docname="SquareConcStyle.svg"
   xml:space="preserve"
   inkscape:version="1.4.2 (f4327f4, 2025-05-13)"
   xmlns:inkscape="http://www.inkscape.org/namespaces/inkscape"
   xmlns:sodipodi="http://sodipodi.sourceforge.net/DTD/sodipodi-0.dtd"
   xmlns:xlink="http://www.w3.org/1999/xlink"
   xmlns="http://www.w3.org/2000/svg"
   xmlns:svg="http://www.w3.org/2000/svg"><sodipodi:namedview
     id="namedview2"
     pagecolor="#ffffff"
     bordercolor="#000000"
     borderopacity="0.25"
     inkscape:showpageshadow="2"
     inkscape:pageopacity="0.0"
     inkscape:pagecheckerboard="0"
     inkscape:deskcolor="#d1d1d1"
     inkscape:zoom="7.29375"
     inkscape:cx="18.029135"
     inkscape:cy="31.739503"
     inkscape:window-width="2560"
     inkscape:window-height="1369"
     inkscape:window-x="-8"
     inkscape:window-y="-8"
     inkscape:window-maximized="1"
     inkscape:current-layer="path789-+-path789-copy-Mask" /><title
     id="title1">SpiralStyle</title><defs
     id="defs1"><rect
       id="path-1"
       x="0"
       y="0"
       width="76"
       height="76"
       rx="9" /><rect
       id="path-3"
       x="0"
       y="0"
       width="76"
       height="76"
       rx="9" /><clipPath
       clipPathUnits="userSpaceOnUse"
       id="clipPath4"><rect
         style="fill:#ffffff;fill-opacity:1"
         id="rect4"
         width="77.052269"
         height="76.915169"
         x="-1.0402741"
         y="-0.76606679"
         rx="8.7325592" /></clipPath><clipPath
       clipPathUnits="userSpaceOnUse"
       id="clipPath1"><use
         id="use3"
         stroke="#9939af"
         stroke-width="2"
         stroke-linecap="round"
         stroke-linejoin="round"
         xlink:href="#path-3"
         transform="translate(-0.0634105,-0.18509)" /></clipPath></defs><g
     id="SpiralStyle"
     stroke="none"
     stroke-width="1"
     fill="none"
     fill-rule="evenodd"><g
       id="path789-+-path789-copy-Mask"
       transform="translate(2.000000, 2.000000)"><mask
         id="mask-2"
         fill="white"><use
           xlink:href="#path-1"
           id="use1" /></mask><use
         id="Mask"
         fill="#F5DDFA"
         xlink:href="#path-1" /><mask
         id="mask-4"
         fill="white"><use
           xlink:href="#path-3"
           id="use2" /></mask><use
         id="Mask-Copy"
         stroke="#9939AF"
         stroke-width="2"
         stroke-linecap="round"
         stroke-linejoin="round"
         xlink:href="#path-3" /><path
         style="fill:#9939af;fill-opacity:1"
         d="m -11.502907,71.019289 0,-5.640809 6.1245678,5.619918 c 3.3685121,3.090955 6.12456756,5.629319 6.12456756,5.640809 0,0.01149 -2.75605546,0.02089 -6.12456756,0.02089 H -11.502907 Z M 2.2541527,64.034277 -11.504088,51.408455 l 0.02311,-6.053736 0.02311,-6.053737 L 8.8972325,57.98054 29.252338,76.660098 H 22.632366 16.012393 Z M 67.12581,58.683084 86.715342,40.706071 l 0.02311,6.053733 0.02311,6.053733 -12.992663,11.923281 -12.992663,11.92328 h -6.619976 -6.619976 z m 14.230536,13.059187 c 2.947136,-2.704805 5.368689,-4.917827 5.381229,-4.917827 0.01254,0 0.0228,2.213022 0.0228,4.917827 v 4.917827 h -5.38123 -5.381229 z M 18.624536,56.410197 -1.1000458,38.309263 18.64713,20.187736 38.394306,2.0662086 58.141481,20.187736 77.888657,38.309263 58.164075,56.410197 c -10.84852,9.955514 -19.744916,18.100935 -19.769769,18.100935 -0.02485,0 -8.92125,-8.145421 -19.76977,-18.100935 z M 53.255423,51.905625 68.071301,38.309247 53.232803,24.6923 38.394306,11.075353 23.555808,24.6923 8.7173098,38.309247 23.533188,51.905625 c 8.148733,7.478008 14.836236,13.596378 14.861118,13.596378 0.02488,0 6.712384,-6.11837 14.861117,-13.596378 z m -25.669225,-3.719377 -10.762791,-9.877025 10.785449,-9.897558 10.78545,-9.897557 10.785449,9.897557 10.785449,9.897558 -10.762791,9.877025 c -5.919535,5.432363 -10.783184,9.877024 -10.808107,9.877024 -0.02492,0 -4.888573,-4.444661 -10.808108,-9.877024 z m 18.283751,-3.058165 7.4302,-6.818899 -7.452921,-6.839374 -7.452922,-6.839374 -7.452922,6.839374 -7.452922,6.839374 7.4302,6.818899 c 4.08661,3.750395 7.45065,6.818899 7.475644,6.818899 0.02499,0 3.389033,-3.068504 7.475643,-6.818899 z m -12.339376,-2.396958 -4.818068,-4.422009 4.8409,-4.442382 4.840901,-4.442382 4.8409,4.442382 4.8409,4.442382 -4.818068,4.422009 c -2.649937,2.432105 -4.838617,4.422009 -4.863732,4.422009 -0.02512,0 -2.213796,-1.989904 -4.863733,-4.422009 z m 7.746061,-1.818424 2.836223,-2.603721 -2.859276,-2.623891 -2.859275,-2.623891 -2.859276,2.623891 -2.859276,2.623891 2.836223,2.603721 c 1.559922,1.432046 2.85697,2.60372 2.882329,2.60372 0.02536,0 1.322406,-1.171674 2.882328,-2.60372 z m -4.368791,-1.281276 -1.439318,-1.322767 1.46289,-1.34246 1.462891,-1.342461 1.46289,1.342461 1.46289,1.34246 -1.439318,1.322767 c -0.791624,0.727522 -1.460533,1.322767 -1.486462,1.322767 -0.02593,0 -0.694838,-0.595245 -1.486463,-1.322767 z m 2.117813,-0.785688 0.581113,-0.538057 -0.606232,-0.556325 -0.606231,-0.556324 -0.606232,0.556324 -0.606232,0.556325 0.581113,0.538057 c 0.319612,0.295931 0.60372,0.538056 0.631351,0.538056 0.02763,0 0.311738,-0.242125 0.63135,-0.538056 z M 38.21042,38.42914 c -0.09572,-0.105842 -0.08981,-0.152049 0.03401,-0.265668 0.139796,-0.128288 0.159965,-0.128288 0.299761,0 0.123813,0.113619 0.129727,0.159826 0.034,0.265668 -0.06373,0.07047 -0.14648,0.128127 -0.183885,0.128127 -0.03741,0 -0.120155,-0.05766 -0.183886,-0.128127 z m -49.713327,-7.145467 0,-6.074995 13.8485273,-12.708273 13.8485267,-12.70827251 6.596807,0.0212049 6.596806,0.0212049 L 8.9424267,18.596606 -11.502907,37.358669 Z m 78.53865,-13.430791 -19.679599,-18.05966592 6.619975,0 6.619976,0 13.082731,12.00593292 13.082731,12.005932 -0.02311,6.053734 -0.02311,6.053733 z M -11.502907,5.4962428 V -0.20678392 H -5.266 0.97090678 L -5.2432385,5.4962428 c -3.4177799,3.1366647 -6.2243875,5.7030272 -6.2369065,5.7030272 -0.01252,0 -0.02276,-2.5663625 -0.02276,-5.7030272 z m 92.769186,-0.7025467 -5.448506,-5.00048002 5.471302,0 5.471301,0 V 4.7936961 c 0,2.7502639 -0.01026,5.0004799 -0.0228,5.0004799 -0.01254,0 -2.474623,-2.250216 -5.471301,-5.0004799 z"
         id="path1"
         clip-path="url(#clipPath1)" /></g></g></svg>
