<?xml version="1.0" encoding="UTF-8" standalone="no"?>
<svg
   width="80px"
   height="80px"
   viewBox="0 0 80 80"
   version="1.1"
   id="svg2"
   sodipodi:docname="SquareStyle.svg"
   xml:space="preserve"
   inkscape:version="1.4.2 (f4327f4, 2025-05-13)"
   xmlns:inkscape="http://www.inkscape.org/namespaces/inkscape"
   xmlns:sodipodi="http://sodipodi.sourceforge.net/DTD/sodipodi-0.dtd"
   xmlns:xlink="http://www.w3.org/1999/xlink"
   xmlns="http://www.w3.org/2000/svg"
   xmlns:svg="http://www.w3.org/2000/svg"><sodipodi:namedview
     id="namedview2"
     pagecolor="#ffffff"
     bordercolor="#000000"
     borderopacity="0.25"
     inkscape:showpageshadow="2"
     inkscape:pageopacity="0.0"
     inkscape:pagecheckerboard="0"
     inkscape:deskcolor="#d1d1d1"
     inkscape:zoom="7.29375"
     inkscape:cx="-8.5004284"
     inkscape:cy="26.392459"
     inkscape:window-width="2560"
     inkscape:window-height="1369"
     inkscape:window-x="-8"
     inkscape:window-y="-8"
     inkscape:window-maximized="1"
     inkscape:current-layer="path789-+-path789-copy-Mask" /><title
     id="title1">SpiralStyle</title><defs
     id="defs1"><rect
       id="path-1"
       x="0"
       y="0"
       width="76"
       height="76"
       rx="9" /><rect
       id="path-3"
       x="0"
       y="0"
       width="76"
       height="76"
       rx="9" /><clipPath
       clipPathUnits="userSpaceOnUse"
       id="clipPath4"><rect
         style="fill:#ffffff;fill-opacity:1"
         id="rect4"
         width="77.052269"
         height="76.915169"
         x="-1.0402741"
         y="-0.76606679"
         rx="8.7325592" /></clipPath></defs><g
     id="SpiralStyle"
     stroke="none"
     stroke-width="1"
     fill="none"
     fill-rule="evenodd"><g
       id="path789-+-path789-copy-Mask"
       transform="translate(2.000000, 2.000000)"><mask
         id="mask-2"
         fill="white"><use
           xlink:href="#path-1"
           id="use1" /></mask><use
         id="Mask"
         fill="#F5DDFA"
         xlink:href="#path-1" /><mask
         id="mask-4"
         fill="white"><use
           xlink:href="#path-3"
           id="use2" /></mask><use
         id="Mask-Copy"
         stroke="#9939AF"
         stroke-width="2"
         stroke-linecap="round"
         stroke-linejoin="round"
         xlink:href="#path-3" /><path
         style="fill:#9939af;fill-opacity:1"
         d="m -14.384111,66.527557 c 0,-8.638748 0.0061,-9.004505 0.148744,-8.904216 0.08181,0.05752 1.270264,1.006119 2.641009,2.107993 4.7110134,3.78695 8.5535912,6.806107 15.8693373,12.468718 l 4.3103032,3.336306 H -2.8994144 -14.384111 Z m 45.791347,7.593776 C 28.806242,72.026764 23.205558,67.727146 18.555714,64.255279 4.401952,53.687188 -0.78653435,49.62331 -9.8507264,42.005954 c -3.9149796,-3.290066 -4.5333846,-3.840538 -4.5333846,-4.035382 0,-0.111518 0.387431,-0.602051 1.054207,-1.334748 C -7.2875856,29.99613 -1.911538,23.700551 7.4117742,12.346441 10.466089,8.6268384 12.420065,6.2673393 16.604022,1.2464585 l 0.579199,-0.69505692 8.393416,-0.005275 c 7.98601,-0.005019 8.387371,0.001524 8.268893,0.13479161 C 27.637588,7.6637622 24.028609,12.010233 16.18448,21.950989 11.002386,28.518186 7.8405643,32.351634 4.1781671,36.507655 3.4848634,37.294403 2.917615,37.963327 2.917615,37.994152 c 0,0.0646 0.3817819,0.389966 2.7865761,2.374836 5.1503709,4.251015 9.7068069,7.751121 15.4312459,11.853779 10.755868,7.708643 11.604396,8.337762 16.482614,12.220604 0.278674,0.221811 0.522289,0.361014 0.56029,0.320151 0.331836,-0.356825 2.295184,-2.591259 3.26343,-3.714022 3.235799,-3.752183 6.032985,-7.276686 9.845797,-12.405874 2.805119,-3.773588 5.188905,-6.846284 6.977191,-8.993585 0.764987,-0.918566 1.379653,-1.678314 1.365924,-1.68833 -0.01373,-0.01002 -0.60515,-0.484752 -1.314271,-1.054968 -3.859476,-3.103469 -6.862091,-5.282013 -11.728574,-8.509652 -4.037662,-2.677933 -6.107334,-4.119421 -7.86064,-5.474789 -0.320249,-0.247564 -0.606252,-0.441326 -0.635563,-0.430582 -0.08511,0.0312 -1.261894,1.419954 -2.525944,2.980936 -1.668758,2.060759 -2.719348,3.494969 -5.218024,7.123373 -1.212587,1.760833 -2.588596,3.69937 -3.057798,4.307858 -0.469203,0.608489 -0.820258,1.133648 -0.780124,1.16702 0.348333,0.289644 1.534112,1.175385 2.526822,1.887461 1.551827,1.113132 2.679057,1.835977 4.990883,3.200442 1.029369,0.607545 2.371777,1.431266 2.983128,1.830492 0.931946,0.608581 1.12683,0.707019 1.20613,0.609228 1.401876,-1.728761 2.285892,-3.010561 3.419847,-4.958693 0.448408,-0.770365 1.001992,-1.681496 1.230186,-2.024735 0.396809,-0.596863 0.408093,-0.629125 0.258803,-0.739969 -0.757001,-0.56205 -2.247576,-1.426891 -3.510176,-2.036625 -1.734865,-0.837799 -1.497267,-0.84696 -2.076393,0.08006 -0.288994,0.462599 -0.932902,1.888938 -0.932902,2.0665 0,0.09769 0.820119,0.469419 1.178172,0.534025 0.255066,0.04602 0.319502,0.0285 0.395112,-0.107438 0.141968,-0.255246 0.109478,-0.413066 -0.08504,-0.413066 -0.149566,0 -0.167065,-0.0324 -0.118886,-0.220104 0.03107,-0.121057 0.08192,-0.245313 0.112994,-0.276124 0.09074,-0.08997 0.775153,0.08829 1.15108,0.299795 l 0.345947,0.19464 -0.270485,0.661209 c -0.368427,0.900629 -0.744411,1.580968 -1.176052,2.128053 -0.01135,0.01439 -0.678069,-0.284983 -1.481592,-0.665271 -1.382132,-0.654129 -3.429244,-1.867672 -3.515529,-2.08403 -0.02183,-0.05474 0.09547,-0.302838 0.260671,-0.551328 0.165199,-0.248489 0.658934,-1.072079 1.097187,-1.8302 0.999871,-1.729646 1.600532,-2.651593 2.488498,-3.819557 1.037413,-1.364536 1.083346,-1.413898 1.228879,-1.320626 0.06869,0.04402 0.604604,0.39063 1.190929,0.770243 0.586325,0.379612 1.85211,1.149987 2.812854,1.711944 2.6085,1.525758 5.291356,3.330576 6.923738,4.657757 l 0.43559,0.354149 -0.608048,0.775095 c -0.930678,1.186358 -1.679918,2.238224 -3.464072,4.863247 -1.63811,2.410149 -2.732722,3.936795 -3.897889,5.436357 -0.955287,1.229446 -3.438073,4.201989 -3.509669,4.201989 -0.03502,0 -0.357517,-0.228196 -0.71665,-0.507103 -1.218178,-0.946049 -3.643528,-2.648944 -5.937115,-4.168587 -5.328838,-3.530686 -7.681841,-5.174393 -10.437136,-7.290939 -1.891618,-1.453091 -4.117478,-3.250141 -4.117478,-3.324249 0,-0.03462 0.610282,-0.795833 1.356183,-1.691589 1.852889,-2.225147 3.419499,-4.243498 6.294389,-8.109413 2.997649,-4.030991 5.806595,-7.652014 7.823093,-10.084774 2.048737,-2.471657 5.581006,-6.534737 5.72378,-6.583923 0.03323,-0.01145 0.583335,0.398301 1.222449,0.910555 3.762761,3.015876 5.723457,4.463992 15.096984,11.150222 6.007252,4.285033 10.884738,8.032903 16.248066,12.485048 1.091495,0.90606 2.062802,1.706964 2.158458,1.779786 0.17263,0.13142 0.170292,0.136474 -0.314679,0.680322 -3.371663,3.780996 -7.146891,8.326159 -11.690179,14.074322 -6.838444,8.651991 -8.801823,11.087113 -11.809462,14.646934 -1.595106,1.887956 -4.310918,5.022305 -6.156492,7.105275 l -1.039767,1.173513 -4.325432,-0.0016 -4.325432,-0.0016 z m 28.090755,1.274959 c 0.385247,-0.428236 4.356997,-5.198297 6.98084,-8.383969 1.667835,-2.024959 4.393904,-5.334549 6.057932,-7.354645 6.39497,-7.763365 12.022199,-14.302126 17.276762,-20.075355 L 91.24954,38.004562 90.150735,37.056599 C 86.833995,34.195176 81.265683,29.578453 77.247741,26.358644 72.117188,22.247235 68.67803,19.60625 59.978077,13.096991 53.734872,8.4258575 51.132647,6.4542241 48.5426,4.4326495 46.63877,2.9466783 43.956796,0.82436397 43.762642,0.65014641 43.659663,0.55774201 45.453454,0.54085219 55.370285,0.54085219 l 11.729444,0 1.784559,1.38250421 c 0.981507,0.7603773 3.43155,2.6585435 5.444539,4.2181471 5.054402,3.9159995 8.959741,6.9909035 13.009196,10.2429095 1.893835,1.520887 3.604537,2.891309 3.801559,3.045382 l 0.358221,0.280133 0.0016,21.25006 0.0016,21.250061 -2.124804,2.481175 c -1.168642,1.364646 -3.719062,4.363066 -5.6676,6.663155 l -3.542796,4.181979 H 69.768942 c -9.894411,0 -10.390866,-0.0068 -10.270951,-0.140066 z M -14.384111,6.2635616 V 0.54085219 h 4.8661101 c 2.6763608,0 4.8661106,0.0185335 4.8661106,0.0411855 0,0.0437765 -0.5832761,0.73423614 -6.1349127,7.26227234 -1.937346,2.278079 -3.539291,4.141961 -3.559878,4.141961 -0.02059,0 -0.03743,-2.5752193 -0.03743,-5.7227094 z"
         id="path2"
         clip-path="url(#clipPath4)" /></g></g></svg>
