<?xml version="1.0" encoding="UTF-8"?>
<svg width="80px" height="80px" viewBox="0 0 80 80" version="1.1" xmlns="http://www.w3.org/2000/svg" xmlns:xlink="http://www.w3.org/1999/xlink">
    <title>WallText</title>
    <defs>
        <rect id="path-1" x="0" y="0" width="76" height="76" rx="9"></rect>
        <rect id="path-3" x="0" y="0" width="76" height="76" rx="9"></rect>
    </defs>
    <g id="WallText" stroke="none" stroke-width="1" fill="none" fill-rule="evenodd">
        <g id="path789-+-path789-copy-Mask" transform="translate(2.000000, 2.000000)">
            <mask id="mask-2" fill="white">
                <use xlink:href="#path-1"></use>
            </mask>
            <use id="Mask" fill="#F5DDFA" xlink:href="#path-1"></use>
            <g id="BIG-WALLOFT-BIGWALLO" mask="url(#mask-2)" fill-rule="nonzero">
                <g transform="translate(-10.852578, -4.560547)">
                    <path d="M18.8959375,12.1972656 L13.856875,12.1972656 L13.1635156,14.5605469 L8.64203123,14.5605469 L14.0228906,0.244140625 L18.8471094,0.244140625 L24.2279687,14.5605469 L19.5990625,14.5605469 L18.8959375,12.1972656 Z M17.9682031,9.1015625 L16.3861719,3.95507812 L14.8139062,9.1015625 L17.9682031,9.1015625 Z" id="Shape" fill="#DFB5E8"></path>
                    <polygon id="Path" fill="#DFB5E8" points="25.8639844 0.244140625 30.2878125 0.244140625 30.2878125 11.0351562 37.1921094 11.0351562 37.1921094 14.5605469 25.8639844 14.5605469"></polygon>
                    <polygon id="Path" fill="#DFB5E8" points="39.4238281 0.244140625 43.8476562 0.244140625 43.8476562 11.0351562 50.7519531 11.0351562 50.7519531 14.5605469 39.4238281 14.5605469"></polygon>
                    <path d="M52.0852344,7.41210938 C52.0852344,5.07486979 52.7362761,3.25520833 54.0383594,1.953125 C55.3404427,0.651041667 57.1535938,0 59.4778125,0 C61.860625,0 63.6965625,0.639648438 64.985625,1.91894531 C66.2746875,3.19824219 66.9192188,4.99023438 66.9192188,7.29492188 C66.9192188,8.96809896 66.6376432,10.3401693 66.0744922,11.4111328 C65.5113412,12.4820964 64.6975391,13.3154297 63.6330859,13.9111328 C62.5686328,14.5068359 61.2421354,14.8046875 59.6535938,14.8046875 C58.0390104,14.8046875 56.7027474,14.547526 55.6448047,14.0332031 C54.586862,13.5188802 53.7291146,12.7050781 53.0715625,11.5917969 C52.4140104,10.4785156 52.0852344,9.08528646 52.0852344,7.41210938 Z M56.5090625,7.43164062 C56.5090625,8.87695312 56.7776172,9.91536458 57.3147266,10.546875 C57.8518359,11.1783854 58.5826302,11.4941406 59.5071094,11.4941406 C60.4576302,11.4941406 61.1933073,11.1848958 61.7141406,10.5664062 C62.234974,9.94791667 62.4953906,8.83789062 62.4953906,7.23632812 C62.4953906,5.88867188 62.2235807,4.90397135 61.6799609,4.28222656 C61.1363412,3.66048177 60.3990365,3.34960938 59.4680469,3.34960938 C58.5761198,3.34960938 57.859974,3.66536458 57.3196094,4.296875 C56.7792448,4.92838542 56.5090625,5.97330729 56.5090625,7.43164062 Z" id="Shape" fill="#DFB5E8"></path>
                    <polygon id="Path" fill="#DFB5E8" points="69.5415625 0.244140625 80.4790625 0.244140625 80.4790625 3.3203125 73.9849219 3.3203125 73.9849219 5.8203125 79.5317969 5.8203125 79.5317969 8.7109375 73.9849219 8.7109375 73.9849219 14.5605469 69.5415625 14.5605469"></polygon>
                    <polygon id="Path" fill="#DFB5E8" points="82.0760157 0.244140625 95.5232813 0.244140625 95.5232813 3.77929688 91.0115625 3.77929688 91.0115625 14.5605469 86.5877344 14.5605469 86.5877344 3.77929688 82.0760157 3.77929688"></polygon>
                    <path d="M7.74414062,27.375 L7.74414062,24.3964844 L14.5800781,24.3964844 L14.5800781,30.5 C13.2714844,31.3919271 12.1142578,31.9990234 11.1083984,32.3212891 C10.1025391,32.6435547 8.90950521,32.8046875 7.52929687,32.8046875 C5.83007812,32.8046875 4.44498698,32.514974 3.37402344,31.9355469 C2.3030599,31.3561198 1.47298177,30.4934896 0.883789062,29.3476562 C0.294596354,28.2018229 0,26.8867188 0,25.4023438 C0,23.8398438 0.322265625,22.4807943 0.966796875,21.3251953 C1.61132812,20.1695964 2.55533854,19.2923177 3.79882812,18.6933594 C4.76888021,18.2311198 6.07421875,18 7.71484375,18 C9.296875,18 10.4801432,18.1432292 11.2646484,18.4296875 C12.0491536,18.7161458 12.7001953,19.1604818 13.2177734,19.7626953 C13.7353516,20.3649089 14.124349,21.1282552 14.3847656,22.0527344 L10.1171875,22.8144531 C9.94140625,22.2740885 9.64355469,21.8606771 9.22363281,21.5742188 C8.80371094,21.2877604 8.26822917,21.1445312 7.6171875,21.1445312 C6.64713542,21.1445312 5.87402344,21.4814453 5.29785156,22.1552734 C4.72167969,22.8291016 4.43359375,23.8951823 4.43359375,25.3535156 C4.43359375,26.9029948 4.7249349,28.0097656 5.30761719,28.6738281 C5.89029948,29.3378906 6.70247396,29.6699219 7.74414062,29.6699219 C8.23893229,29.6699219 8.7109375,29.5983073 9.16015625,29.4550781 C9.609375,29.311849 10.1236979,29.0677083 10.703125,28.7226562 L10.703125,27.375 L7.74414062,27.375 Z" id="Path" fill="#DFB5E8"></path>
                    <polygon id="Path" fill="#9939AF" points="15.9524219 18.2441406 20.1516406 18.2441406 21.6653125 26.2421875 23.8723438 18.2441406 28.0617969 18.2441406 30.2785938 26.2421875 31.7922656 18.2441406 35.9719531 18.2441406 32.8176563 32.5605469 28.4817188 32.5605469 25.9719531 23.546875 23.4719531 32.5605469 19.1360156 32.5605469"></polygon>
                    <path d="M46.455625,30.1972656 L41.4165625,30.1972656 L40.7232031,32.5605469 L36.2017188,32.5605469 L41.5825781,18.2441406 L46.4067969,18.2441406 L51.7876563,32.5605469 L47.15875,32.5605469 L46.455625,30.1972656 Z M45.5278906,27.1015625 L43.9458594,21.9550781 L42.3735938,27.1015625 L45.5278906,27.1015625 Z" id="Shape" fill="#9939AF"></path>
                    <polygon id="Path" fill="#9939AF" points="53.4236719 18.2441406 57.8475 18.2441406 57.8475 29.0351562 64.7517969 29.0351562 64.7517969 32.5605469 53.4236719 32.5605469"></polygon>
                    <polygon id="Path" fill="#9939AF" points="66.9835157 18.2441406 71.4073438 18.2441406 71.4073438 29.0351562 78.3116407 29.0351562 78.3116407 32.5605469 66.9835157 32.5605469"></polygon>
                    <path d="M79.6449219,25.4121094 C79.6449219,23.0748698 80.2959636,21.2552083 81.5980469,19.953125 C82.9001303,18.6510417 84.7132813,18 87.0375,18 C89.4203125,18 91.25625,18.6396484 92.5453125,19.9189453 C93.834375,21.1982422 94.4789063,22.9902344 94.4789063,25.2949219 C94.4789063,26.968099 94.1973308,28.3401693 93.6341797,29.4111328 C93.0710287,30.4820964 92.2572266,31.3154297 91.1927735,31.9111328 C90.1283204,32.5068359 88.801823,32.8046875 87.2132813,32.8046875 C85.598698,32.8046875 84.2624349,32.547526 83.2044922,32.0332031 C82.1465495,31.5188802 81.2888021,30.7050781 80.63125,29.5917969 C79.973698,28.4785156 79.6449219,27.0852865 79.6449219,25.4121094 Z M84.06875,25.4316406 C84.06875,26.8769531 84.3373047,27.9153646 84.8744141,28.546875 C85.4115235,29.1783854 86.1423178,29.4941406 87.0667969,29.4941406 C88.0173178,29.4941406 88.7529948,29.1848958 89.2738282,28.5664062 C89.7946615,27.9479167 90.0550782,26.8378906 90.0550782,25.2363281 C90.0550782,23.8886719 89.7832683,22.9039714 89.2396485,22.2822266 C88.6960287,21.6604818 87.958724,21.3496094 87.0277344,21.3496094 C86.1358073,21.3496094 85.4196615,21.6653646 84.8792969,22.296875 C84.3389323,22.9283854 84.06875,23.9733073 84.06875,25.4316406 Z" id="Shape" fill="#DFB5E8"></path>
                    <polygon id="Path" fill="#DFB4E8" points="9.43359375 36.2441406 13.8574219 36.2441406 13.8574219 47.0351562 20.7617188 47.0351562 20.7617188 50.5605469 9.43359375 50.5605469"></polygon>
                    <polygon id="Path" fill="#DFB4E8" points="22.9934375 36.2441406 27.4172656 36.2441406 27.4172656 47.0351562 34.3215625 47.0351562 34.3215625 50.5605469 22.9934375 50.5605469"></polygon>
                    <path d="M35.6548438,43.4121094 C35.6548438,41.0748698 36.3058854,39.2552083 37.6079688,37.953125 C38.9100521,36.6510417 40.7232031,36 43.0474219,36 C45.4302344,36 47.2661719,36.6396484 48.5552344,37.9189453 C49.8442969,39.1982422 50.4888281,40.9902344 50.4888281,43.2949219 C50.4888281,44.968099 50.2072526,46.3401693 49.6441016,47.4111328 C49.0809505,48.4820964 48.2671485,49.3154297 47.2026953,49.9111328 C46.1382422,50.5068359 44.8117448,50.8046875 43.2232031,50.8046875 C41.6086198,50.8046875 40.2723568,50.547526 39.2144141,50.0332031 C38.1564714,49.5188802 37.298724,48.7050781 36.6411719,47.5917969 C35.9836198,46.4785156 35.6548438,45.0852865 35.6548438,43.4121094 Z M40.0786719,43.4316406 C40.0786719,44.8769531 40.3472266,45.9153646 40.884336,46.546875 C41.4214453,47.1783854 42.1522396,47.4941406 43.0767188,47.4941406 C44.0272396,47.4941406 44.7629167,47.1848958 45.28375,46.5664062 C45.8045834,45.9479167 46.065,44.8378906 46.065,43.2363281 C46.065,41.8886719 45.7931901,40.9039714 45.2495703,40.2822266 C44.7059505,39.6604818 43.9686459,39.3496094 43.0376563,39.3496094 C42.1457292,39.3496094 41.4295834,39.6653646 40.8892188,40.296875 C40.3488542,40.9283854 40.0786719,41.9733073 40.0786719,43.4316406 Z" id="Shape" fill="#9939AF"></path>
                    <polygon id="Path" fill="#9939AF" points="53.1111719 36.2441406 64.0486719 36.2441406 64.0486719 39.3203125 57.5545313 39.3203125 57.5545313 41.8203125 63.1014063 41.8203125 63.1014063 44.7109375 57.5545313 44.7109375 57.5545313 50.5605469 53.1111719 50.5605469"></polygon>
                    <polygon id="Path" fill="#DFB5E8" points="65.645625 36.2441406 79.0928907 36.2441406 79.0928907 39.7792969 74.5811719 39.7792969 74.5811719 50.5605469 70.1573438 50.5605469 70.1573438 39.7792969 65.645625 39.7792969"></polygon>
                    <polygon id="Path" fill="#DFB5E8" points="81.3050782 36.2441406 93.1605469 36.2441406 93.1605469 39.3007812 85.7386719 39.3007812 85.7386719 41.5761719 92.6234375 41.5761719 92.6234375 44.4960938 85.7386719 44.4960938 85.7386719 47.3183594 93.3753907 47.3183594 93.3753907 50.5605469 81.3050782 50.5605469"></polygon>
                    <polygon id="Path" fill="#DFB4E9" points="6.76703123 54.2441406 17.7045312 54.2441406 17.7045312 57.3203125 11.2103906 57.3203125 11.2103906 59.8203125 16.7572656 59.8203125 16.7572656 62.7109375 11.2103906 62.7109375 11.2103906 68.5605469 6.76703123 68.5605469"></polygon>
                    <polygon id="Path" fill="#9939B0" points="19.3014844 54.2441406 32.74875 54.2441406 32.74875 57.7792969 28.2370312 57.7792969 28.2370312 68.5605469 23.8132031 68.5605469 23.8132031 57.7792969 19.3014844 57.7792969"></polygon>
                    <polygon id="Path" fill="#9939B0" points="34.9609375 54.2441406 46.8164062 54.2441406 46.8164062 57.3007812 39.3945312 57.3007812 39.3945312 59.5761719 46.2792969 59.5761719 46.2792969 62.4960938 39.3945312 62.4960938 39.3945312 65.3183594 47.03125 65.3183594 47.03125 68.5605469 34.9609375 68.5605469"></polygon>
                    <polygon id="Path" fill="#9939B0" points="48.6477344 54.2441406 53.5207813 54.2441406 56.0598438 58.6484375 58.5207813 54.2441406 63.345 54.2441406 58.891875 61.1777344 63.7649219 68.5605469 58.7942188 68.5605469 55.9719531 63.9609375 53.1399219 68.5605469 48.1985156 68.5605469 53.1399219 61.0996094"></polygon>
                    <polygon id="Path" fill="#9939B0" points="64.4048438 54.2441406 77.8521094 54.2441406 77.8521094 57.7792969 73.3403906 57.7792969 73.3403906 68.5605469 68.9165625 68.5605469 68.9165625 57.7792969 64.4048438 57.7792969"></polygon>
                    <path d="M80.0838282,54.2441406 L88.3650782,54.2441406 C89.7452865,54.2441406 90.8048568,54.5859375 91.5437891,55.2695312 C92.2827214,55.953125 92.6521875,56.7994792 92.6521875,57.8085938 C92.6521875,58.6549479 92.3885157,59.3808594 91.8611719,59.9863281 C91.5096094,60.389974 90.9952865,60.7089844 90.3182032,60.9433594 C91.346849,61.1907552 92.1036849,61.6155599 92.588711,62.2177734 C93.073737,62.819987 93.31625,63.5768229 93.31625,64.4882812 C93.31625,65.2304688 93.143724,65.8977865 92.7986719,66.4902344 C92.4536198,67.0826823 91.9816146,67.5514323 91.3826563,67.8964844 C91.0115625,68.1113281 90.4516667,68.2675781 89.7029688,68.3652344 C88.706875,68.4954427 88.0460677,68.5605469 87.7205469,68.5605469 L80.0838282,68.5605469 L80.0838282,54.2441406 Z M84.5467188,59.859375 L86.4705469,59.859375 C87.1606511,59.859375 87.6407943,59.7405599 87.9109766,59.5029297 C88.1811589,59.2652995 88.31625,58.921875 88.31625,58.4726562 C88.31625,58.0559896 88.1811589,57.7304688 87.9109766,57.4960938 C87.6407943,57.2617188 87.1704167,57.1445312 86.4998438,57.1445312 L84.5467188,57.1445312 L84.5467188,59.859375 Z M84.5467188,65.484375 L86.8025782,65.484375 C87.5642969,65.484375 88.1014063,65.3492839 88.4139063,65.0791016 C88.7264063,64.8089193 88.8826563,64.4459635 88.8826563,63.9902344 C88.8826563,63.5670573 88.7280339,63.226888 88.4187891,62.9697266 C88.1095443,62.7125651 87.5675521,62.5839844 86.7928125,62.5839844 L84.5467188,62.5839844 L84.5467188,65.484375 Z" id="Shape" fill="#E0B4E9"></path>
                    <polygon id="Path" fill="#E0B4E9" points="5.87374999 72.2441406 10.2975781 72.2441406 10.2975781 83.0351562 17.201875 83.0351562 17.201875 86.5605469 5.87374999 86.5605469"></polygon>
                    <polygon id="Path" fill="#E0B4E9" points="19.4335938 72.2441406 23.8574219 72.2441406 23.8574219 83.0351562 30.7617188 83.0351562 30.7617188 86.5605469 19.4335938 86.5605469"></polygon>
                    <path d="M32.095,79.4121094 C32.095,77.0748698 32.7460417,75.2552083 34.048125,73.953125 C35.3502083,72.6510417 37.1633594,72 39.4875781,72 C41.8703906,72 43.7063281,72.6396484 44.9953906,73.9189453 C46.2844531,75.1982422 46.9289844,76.9902344 46.9289844,79.2949219 C46.9289844,80.968099 46.6474089,82.3401693 46.0842578,83.4111328 C45.5211068,84.4820964 44.7073047,85.3154297 43.6428516,85.9111328 C42.5783984,86.5068359 41.2519011,86.8046875 39.6633594,86.8046875 C38.0487761,86.8046875 36.712513,86.547526 35.6545703,86.0332031 C34.5966276,85.5188802 33.7388802,84.7050781 33.0813281,83.5917969 C32.4237761,82.4785156 32.095,81.0852865 32.095,79.4121094 Z M36.5188281,79.4316406 C36.5188281,80.8769531 36.7873828,81.9153646 37.3244922,82.546875 C37.8616016,83.1783854 38.5923958,83.4941406 39.516875,83.4941406 C40.4673958,83.4941406 41.2030729,83.1848958 41.7239063,82.5664062 C42.2447396,81.9479167 42.5051563,80.8378906 42.5051563,79.2363281 C42.5051563,77.8886719 42.2333464,76.9039714 41.6897266,76.2822266 C41.1461068,75.6604818 40.4088021,75.3496094 39.4778125,75.3496094 C38.5858854,75.3496094 37.8697396,75.6653646 37.329375,76.296875 C36.7890104,76.9283854 36.5188281,77.9733073 36.5188281,79.4316406 Z" id="Shape" fill="#E0B4E9"></path>
                    <polygon id="Path" fill="#E0B4E9" points="49.5513281 72.2441406 60.4888281 72.2441406 60.4888281 75.3203125 53.9946875 75.3203125 53.9946875 77.8203125 59.5415625 77.8203125 59.5415625 80.7109375 53.9946875 80.7109375 53.9946875 86.5605469 49.5513281 86.5605469"></polygon>
                    <polygon id="Path" fill="#E0B4E9" points="62.0857813 72.2441406 75.5330469 72.2441406 75.5330469 75.7792969 71.0213282 75.7792969 71.0213282 86.5605469 66.5975 86.5605469 66.5975 75.7792969 62.0857813 75.7792969"></polygon>
                    <polygon id="Path" fill="#E0B4E9" points="77.7452344 72.2441406 89.6007032 72.2441406 89.6007032 75.3007812 82.1788282 75.3007812 82.1788282 77.5761719 89.0635938 77.5761719 89.0635938 80.4960938 82.1788282 80.4960938 82.1788282 83.3183594 89.8155469 83.3183594 89.8155469 86.5605469 77.7452344 86.5605469"></polygon>
                </g>
            </g>
            <mask id="mask-4" fill="white">
                <use xlink:href="#path-3"></use>
            </mask>
            <use id="Mask-Copy" stroke="#9939AF" stroke-width="2" stroke-linecap="round" stroke-linejoin="round" xlink:href="#path-3"></use>
        </g>
    </g>
</svg>