<?xml version="1.0" encoding="UTF-8" standalone="no"?>
<svg
   width="80px"
   height="80px"
   viewBox="0 0 80 80"
   version="1.1"
   id="svg21"
   sodipodi:docname="WallText.svg"
   inkscape:version="1.4.2 (f4327f4, 2025-05-13)"
   xmlns:inkscape="http://www.inkscape.org/namespaces/inkscape"
   xmlns:sodipodi="http://sodipodi.sourceforge.net/DTD/sodipodi-0.dtd"
   xmlns:xlink="http://www.w3.org/1999/xlink"
   xmlns="http://www.w3.org/2000/svg"
   xmlns:svg="http://www.w3.org/2000/svg">
  <sodipodi:namedview
     id="namedview21"
     pagecolor="#ffffff"
     bordercolor="#000000"
     borderopacity="0.25"
     inkscape:showpageshadow="2"
     inkscape:pageopacity="0.0"
     inkscape:pagecheckerboard="0"
     inkscape:deskcolor="#d1d1d1"
     showgrid="false"
     inkscape:zoom="10.31492"
     inkscape:cx="27.484459"
     inkscape:cy="31.26539"
     inkscape:window-width="2560"
     inkscape:window-height="1369"
     inkscape:window-x="-8"
     inkscape:window-y="-8"
     inkscape:window-maximized="1"
     inkscape:current-layer="WallText" />
  <title
     id="title1">WallText</title>
  <defs
     id="defs1">
    <rect
       id="path-1"
       x="0"
       y="0"
       width="76"
       height="76"
       rx="9" />
    <rect
       id="path-3"
       x="0"
       y="0"
       width="76"
       height="76"
       rx="9" />
    <mask
       id="mask-2"
       fill="#ffffff">
      <use
         xlink:href="#path-1"
         id="use1" />
    </mask>
    <mask
       id="mask-4"
       fill="#ffffff">
      <use
         xlink:href="#path-3"
         id="use21" />
    </mask>
  </defs>
  <g
     id="WallText"
     stroke="none"
     stroke-width="1"
     fill="none"
     fill-rule="evenodd"
     transform="translate(0.54841469,0.13710372)">
    <use
       id="Mask"
       fill="#f5ddfa"
       xlink:href="#path-1"
       transform="translate(2.0685518,1.6572408)" />
    <g
       id="BIG-WALLOFT-BIGWALLO"
       mask="url(#mask-2)"
       fill-rule="nonzero"
       transform="translate(2.0685518,1.6572408)">
      <g
         transform="translate(-10.852578,-4.560547)"
         id="g21">
        <path
           d="m 18.895937,12.197266 h -5.039062 l -0.693359,2.363281 H 8.6420312 L 14.022891,0.24414063 h 4.824218 L 24.227969,14.560547 H 19.599062 Z M 17.968203,9.1015625 16.386172,3.9550781 14.813906,9.1015625 Z"
           id="Shape"
           fill="#dfb5e8" />
        <polygon
           id="Path"
           fill="#dfb5e8"
           points="25.863984,0.24414062 30.287813,0.24414062 30.287813,11.035156 37.192109,11.035156 37.192109,14.560547 25.863984,14.560547 " />
        <polygon
           id="polygon1"
           fill="#dfb5e8"
           points="39.423828,0.24414062 43.847656,0.24414062 43.847656,11.035156 50.751953,11.035156 50.751953,14.560547 39.423828,14.560547 " />
        <path
           d="m 52.085234,7.4121094 c 0,-2.3372396 0.651042,-4.1569011 1.953125,-5.4589844 C 55.340443,0.65104167 57.153594,0 59.477812,0 c 2.382813,0 4.21875,0.63964844 5.507813,1.9189453 1.289062,1.2792969 1.933594,3.0712891 1.933594,5.3759766 0,1.6731771 -0.281576,3.0452471 -0.844727,4.1162111 -0.563151,1.070963 -1.376953,1.904297 -2.441406,2.5 -1.064453,0.595703 -2.390951,0.893555 -3.979492,0.893555 -1.614584,0 -2.950847,-0.257162 -4.008789,-0.771485 C 54.586862,13.51888 53.729115,12.705078 53.071562,11.591797 52.41401,10.478516 52.085234,9.0852865 52.085234,7.4121094 Z m 4.423828,0.019531 c 0,1.4453125 0.268555,2.483724 0.805665,3.1152346 0.537109,0.63151 1.267903,0.947266 2.192382,0.947266 0.950521,0 1.686198,-0.309245 2.207032,-0.927735 0.520833,-0.6184895 0.78125,-1.7285156 0.78125,-3.3300781 0,-1.3476562 -0.27181,-2.3323568 -0.81543,-2.9541015 -0.54362,-0.6217448 -1.280925,-0.9326172 -2.211914,-0.9326172 -0.891927,0 -1.608073,0.3157552 -2.148438,0.9472656 -0.540364,0.6315104 -0.810547,1.6764323 -0.810547,3.1347656 z"
           id="path1"
           fill="#dfb5e8" />
        <polygon
           id="polygon2"
           fill="#dfb5e8"
           points="79.531797,8.7109375 73.984922,8.7109375 73.984922,14.560547 69.541562,14.560547 69.541562,0.24414062 80.479062,0.24414062 80.479062,3.3203125 73.984922,3.3203125 73.984922,5.8203125 79.531797,5.8203125 " />
        <polygon
           id="polygon3"
           fill="#dfb5e8"
           points="86.587734,3.7792969 82.076016,3.7792969 82.076016,0.24414062 95.523281,0.24414062 95.523281,3.7792969 91.011562,3.7792969 91.011562,14.560547 86.587734,14.560547 " />
        <path
           d="M 7.7441406,27.375 V 24.396484 H 14.580078 V 30.5 c -1.308594,0.891927 -2.46582,1.499023 -3.47168,1.821289 -1.005859,0.322266 -2.1988928,0.483398 -3.5791011,0.483398 -1.6992188,0 -3.0843099,-0.289713 -4.1552735,-0.86914 C 2.3030599,31.35612 1.4729818,30.49349 0.88378906,29.347656 0.29459635,28.201823 0,26.886719 0,25.402344 0,23.839844 0.32226563,22.480794 0.96679688,21.325195 1.6113281,20.169596 2.5553385,19.292318 3.7988281,18.693359 4.7688802,18.23112 6.0742187,18 7.7148437,18 c 1.5820313,0 2.7652993,0.143229 3.5498043,0.429687 0.784506,0.286459 1.435547,0.730795 1.953125,1.333008 0.517579,0.602214 0.906576,1.36556 1.166993,2.290039 l -4.267578,0.761719 C 9.9414063,22.274089 9.6435547,21.860677 9.2236328,21.574219 8.8037109,21.28776 8.2682292,21.144531 7.6171875,21.144531 c -0.9700521,0 -1.7431641,0.336914 -2.3193359,1.010742 -0.5761719,0.673829 -0.8642579,1.739909 -0.8642579,3.198243 0,1.549479 0.2913412,2.65625 0.8740235,3.320312 0.5826823,0.664063 1.3948568,0.996094 2.4365234,0.996094 0.4947917,0 0.9667969,-0.07162 1.4160157,-0.214844 0.4492187,-0.143229 0.9635417,-0.38737 1.5429687,-0.732422 V 27.375 Z"
           id="path3"
           fill="#dfb5e8" />
        <polygon
           id="polygon4"
           fill="#9939af"
           points="31.792266,18.244141 35.971953,18.244141 32.817656,32.560547 28.481719,32.560547 25.971953,23.546875 23.471953,32.560547 19.136016,32.560547 15.952422,18.244141 20.151641,18.244141 21.665312,26.242188 23.872344,18.244141 28.061797,18.244141 30.278594,26.242188 " />
        <path
           d="m 46.455625,30.197266 h -5.039063 l -0.693359,2.363281 h -4.521484 l 5.380859,-14.316406 h 4.824219 l 5.380859,14.316406 H 47.15875 Z m -0.927734,-3.095704 -1.582032,-5.146484 -1.572265,5.146484 z"
           id="path4"
           fill="#9939af" />
        <polygon
           id="polygon5"
           fill="#9939af"
           points="53.423672,18.244141 57.8475,18.244141 57.8475,29.035156 64.751797,29.035156 64.751797,32.560547 53.423672,32.560547 " />
        <polygon
           id="polygon6"
           fill="#9939af"
           points="66.983516,18.244141 71.407344,18.244141 71.407344,29.035156 78.311641,29.035156 78.311641,32.560547 66.983516,32.560547 " />
        <path
           d="m 79.644922,25.412109 c 0,-2.337239 0.651042,-4.156901 1.953125,-5.458984 C 82.90013,18.651042 84.713281,18 87.0375,18 c 2.382812,0 4.21875,0.639648 5.507812,1.918945 1.289063,1.279297 1.933594,3.071289 1.933594,5.375977 0,1.673177 -0.281575,3.045247 -0.844726,4.116211 -0.563151,1.070963 -1.376953,1.904297 -2.441406,2.5 -1.064454,0.595703 -2.390951,0.893554 -3.979493,0.893554 -1.614583,0 -2.950846,-0.257161 -4.008789,-0.771484 -1.057942,-0.514323 -1.91569,-1.328125 -2.573242,-2.441406 -0.657552,-1.113281 -0.986328,-2.506511 -0.986328,-4.179688 z m 4.423828,0.01953 c 0,1.445312 0.268555,2.483724 0.805664,3.115234 0.53711,0.63151 1.267904,0.947266 2.192383,0.947266 0.950521,0 1.686198,-0.309245 2.207031,-0.927735 0.520834,-0.618489 0.78125,-1.728515 0.78125,-3.330078 0,-1.347656 -0.27181,-2.332357 -0.815429,-2.954101 -0.54362,-0.621745 -1.280925,-0.932618 -2.211915,-0.932618 -0.891927,0 -1.608072,0.315756 -2.148437,0.947266 -0.540365,0.63151 -0.810547,1.676432 -0.810547,3.134766 z"
           id="path6"
           fill="#dfb5e8" />
        <polygon
           id="polygon7"
           fill="#dfb4e8"
           points="9.4335938,36.244141 13.857422,36.244141 13.857422,47.035156 20.761719,47.035156 20.761719,50.560547 9.4335938,50.560547 " />
        <polygon
           id="polygon8"
           fill="#dfb4e8"
           points="22.993437,36.244141 27.417266,36.244141 27.417266,47.035156 34.321562,47.035156 34.321562,50.560547 22.993437,50.560547 " />
        <path
           d="m 35.654844,43.412109 c 0,-2.337239 0.651041,-4.156901 1.953125,-5.458984 C 38.910052,36.651042 40.723203,36 43.047422,36 c 2.382812,0 4.21875,0.639648 5.507812,1.918945 1.289063,1.279297 1.933594,3.071289 1.933594,5.375977 0,1.673177 -0.281575,3.045247 -0.844726,4.116211 -0.563152,1.070963 -1.376954,1.904297 -2.441407,2.5 -1.064453,0.595703 -2.39095,0.893554 -3.979492,0.893554 -1.614583,0 -2.950846,-0.257161 -4.008789,-0.771484 -1.057943,-0.514323 -1.91569,-1.328125 -2.573242,-2.441406 -0.657552,-1.113281 -0.986328,-2.50651 -0.986328,-4.179688 z m 4.423828,0.01953 c 0,1.445312 0.268555,2.483724 0.805664,3.115234 0.537109,0.63151 1.267904,0.947266 2.192383,0.947266 0.950521,0 1.686198,-0.309245 2.207031,-0.927735 0.520833,-0.618489 0.78125,-1.728515 0.78125,-3.330078 0,-1.347656 -0.27181,-2.332357 -0.81543,-2.954101 -0.54362,-0.621745 -1.280924,-0.932618 -2.211914,-0.932618 -0.891927,0 -1.608073,0.315756 -2.148437,0.947266 -0.540365,0.63151 -0.810547,1.676432 -0.810547,3.134766 z"
           id="path8"
           fill="#9939af" />
        <polygon
           id="polygon9"
           fill="#9939af"
           points="63.101406,44.710938 57.554531,44.710938 57.554531,50.560547 53.111172,50.560547 53.111172,36.244141 64.048672,36.244141 64.048672,39.320312 57.554531,39.320312 57.554531,41.820312 63.101406,41.820312 " />
        <polygon
           id="polygon10"
           fill="#dfb5e8"
           points="70.157344,39.779297 65.645625,39.779297 65.645625,36.244141 79.092891,36.244141 79.092891,39.779297 74.581172,39.779297 74.581172,50.560547 70.157344,50.560547 " />
        <polygon
           id="polygon11"
           fill="#dfb5e8"
           points="92.623437,44.496094 85.738672,44.496094 85.738672,47.318359 93.375391,47.318359 93.375391,50.560547 81.305078,50.560547 81.305078,36.244141 93.160547,36.244141 93.160547,39.300781 85.738672,39.300781 85.738672,41.576172 92.623437,41.576172 " />
        <polygon
           id="polygon12"
           fill="#dfb4e9"
           points="16.757266,62.710938 11.210391,62.710938 11.210391,68.560547 6.7670312,68.560547 6.7670312,54.244141 17.704531,54.244141 17.704531,57.320312 11.210391,57.320312 11.210391,59.820312 16.757266,59.820312 " />
        <polygon
           id="polygon13"
           fill="#9939b0"
           points="23.813203,57.779297 19.301484,57.779297 19.301484,54.244141 32.74875,54.244141 32.74875,57.779297 28.237031,57.779297 28.237031,68.560547 23.813203,68.560547 " />
        <polygon
           id="polygon14"
           fill="#9939b0"
           points="46.279297,62.496094 39.394531,62.496094 39.394531,65.318359 47.03125,65.318359 47.03125,68.560547 34.960938,68.560547 34.960938,54.244141 46.816406,54.244141 46.816406,57.300781 39.394531,57.300781 39.394531,59.576172 46.279297,59.576172 " />
        <polygon
           id="polygon15"
           fill="#9939b0"
           points="63.764922,68.560547 58.794219,68.560547 55.971953,63.960938 53.139922,68.560547 48.198516,68.560547 53.139922,61.099609 48.647734,54.244141 53.520781,54.244141 56.059844,58.648438 58.520781,54.244141 63.345,54.244141 58.891875,61.177734 " />
        <polygon
           id="polygon16"
           fill="#9939b0"
           points="68.916562,57.779297 64.404844,57.779297 64.404844,54.244141 77.852109,54.244141 77.852109,57.779297 73.340391,57.779297 73.340391,68.560547 68.916562,68.560547 " />
        <path
           d="m 80.083828,54.244141 h 8.28125 c 1.380209,0 2.439779,0.341796 3.178711,1.02539 0.738932,0.683594 1.108398,1.529948 1.108398,2.539063 0,0.846354 -0.263671,1.572265 -0.791015,2.177734 -0.351563,0.403646 -0.865885,0.722656 -1.542969,0.957031 1.028646,0.247396 1.785482,0.672201 2.270508,1.274414 0.485026,0.602214 0.727539,1.35905 0.727539,2.270508 0,0.742188 -0.172526,1.409505 -0.517578,2.001953 -0.345052,0.592448 -0.817057,1.061198 -1.416016,1.40625 -0.371094,0.214844 -0.930989,0.371094 -1.679687,0.46875 -0.996094,0.130209 -1.656901,0.195313 -1.982422,0.195313 h -7.636719 z m 4.462891,5.615234 h 1.923828 c 0.690104,0 1.170247,-0.118815 1.44043,-0.356445 0.270182,-0.237631 0.405273,-0.581055 0.405273,-1.030274 0,-0.416666 -0.135091,-0.742187 -0.405273,-0.976562 -0.270183,-0.234375 -0.74056,-0.351563 -1.411133,-0.351563 h -1.953125 z m 0,5.625 h 2.255859 c 0.761719,0 1.298828,-0.135091 1.611328,-0.405273 0.3125,-0.270183 0.46875,-0.633138 0.46875,-1.088868 0,-0.423177 -0.154622,-0.763346 -0.463867,-1.020507 -0.309245,-0.257162 -0.851237,-0.385743 -1.625977,-0.385743 h -2.246093 z"
           id="path16"
           fill="#e0b4e9" />
        <polygon
           id="polygon17"
           fill="#e0b4e9"
           points="5.87375,72.244141 10.297578,72.244141 10.297578,83.035156 17.201875,83.035156 17.201875,86.560547 5.87375,86.560547 " />
        <polygon
           id="polygon18"
           fill="#e0b4e9"
           points="19.433594,72.244141 23.857422,72.244141 23.857422,83.035156 30.761719,83.035156 30.761719,86.560547 19.433594,86.560547 " />
        <path
           d="m 32.095,79.412109 c 0,-2.337239 0.651042,-4.156901 1.953125,-5.458984 C 35.350208,72.651042 37.163359,72 39.487578,72 c 2.382813,0 4.21875,0.639648 5.507813,1.918945 1.289062,1.279297 1.933593,3.071289 1.933593,5.375977 0,1.673177 -0.281575,3.045247 -0.844726,4.116211 -0.563151,1.070963 -1.376953,1.904297 -2.441406,2.5 -1.064454,0.595703 -2.390951,0.893554 -3.979493,0.893554 -1.614583,0 -2.950846,-0.257161 -4.008789,-0.771484 C 34.596628,85.51888 33.73888,84.705078 33.081328,83.591797 32.423776,82.478516 32.095,81.085286 32.095,79.412109 Z m 4.423828,0.01953 c 0,1.445312 0.268555,2.483724 0.805664,3.115234 0.53711,0.63151 1.267904,0.947266 2.192383,0.947266 0.950521,0 1.686198,-0.309245 2.207031,-0.927735 0.520834,-0.618489 0.78125,-1.728515 0.78125,-3.330078 0,-1.347656 -0.27181,-2.332357 -0.815429,-2.954101 -0.54362,-0.621745 -1.280925,-0.932618 -2.211915,-0.932618 -0.891927,0 -1.608072,0.315756 -2.148437,0.947266 -0.540365,0.63151 -0.810547,1.676432 -0.810547,3.134766 z"
           id="path18"
           fill="#e0b4e9" />
        <polygon
           id="polygon19"
           fill="#e0b4e9"
           points="59.541562,80.710938 53.994687,80.710938 53.994687,86.560547 49.551328,86.560547 49.551328,72.244141 60.488828,72.244141 60.488828,75.320312 53.994687,75.320312 53.994687,77.820312 59.541562,77.820312 " />
        <polygon
           id="polygon20"
           fill="#e0b4e9"
           points="66.5975,75.779297 62.085781,75.779297 62.085781,72.244141 75.533047,72.244141 75.533047,75.779297 71.021328,75.779297 71.021328,86.560547 66.5975,86.560547 " />
        <polygon
           id="polygon21"
           fill="#e0b4e9"
           points="89.063594,80.496094 82.178828,80.496094 82.178828,83.318359 89.815547,83.318359 89.815547,86.560547 77.745234,86.560547 77.745234,72.244141 89.600703,72.244141 89.600703,75.300781 82.178828,75.300781 82.178828,77.576172 89.063594,77.576172 " />
      </g>
    </g>
    <use
       id="Mask-Copy"
       stroke="#9939af"
       stroke-width="2"
       stroke-linecap="round"
       stroke-linejoin="round"
       xlink:href="#path-3"
       transform="translate(2.0685518,1.6572408)" />
  </g>
</svg>
