<?xml version="1.0" encoding="UTF-8"?>
<svg width="80px" height="80px" viewBox="0 0 80 80" version="1.1" xmlns="http://www.w3.org/2000/svg" xmlns:xlink="http://www.w3.org/1999/xlink">
    <title>WriteLines</title>
    <defs>
        <rect id="path-1" x="0" y="0" width="76" height="76" rx="9"></rect>
        <rect id="path-3" x="0" y="0" width="76" height="76" rx="9"></rect>
    </defs>
    <g id="WriteLines" stroke="none" stroke-width="1" fill="none" fill-rule="evenodd">
        <g id="SpiralStyleCircles" transform="translate(2.000000, 2.000000)">
            <g id="path789-+-path789-copy-Mask-Copy">
                <mask id="mask-2" fill="white">
                    <use xlink:href="#path-1"></use>
                </mask>
                <use id="Mask" fill="#F5DDFA" xlink:href="#path-1"></use>
                <mask id="mask-4" fill="white">
                    <use xlink:href="#path-3"></use>
                </mask>
                <use id="Mask-Copy" stroke="#9939AF" stroke-width="2" stroke-linecap="round" stroke-linejoin="round" xlink:href="#path-3"></use>
                <rect id="Rectangle" fill="#DFB4E8" mask="url(#mask-4)" x="0.999287494" y="40.05" width="74.001425" height="21.4"></rect>
                <g id="WRITE" mask="url(#mask-4)" fill="#9939AF" fill-rule="nonzero">
                    <g transform="translate(1.876953, 23.683594)">
                        <polygon id="Path" points="0 0 4.19921875 0 5.71289062 7.99804688 7.91992188 0 12.109375 0 14.3261719 7.99804688 15.8398438 0 20.0195312 0 16.8652344 14.3164062 12.5292969 14.3164062 10.0195312 5.30273438 7.51953125 14.3164062 3.18359375 14.3164062"></polygon>
                        <path d="M21.5332031,14.3164062 L21.5332031,0 L28.90625,0 C30.2734375,0 31.3183594,0.1171875 32.0410156,0.3515625 C32.7636719,0.5859375 33.3463542,1.02050781 33.7890625,1.65527344 C34.2317708,2.29003906 34.453125,3.06315104 34.453125,3.97460938 C34.453125,4.76888021 34.2838542,5.45410156 33.9453125,6.03027344 C33.6067708,6.60644531 33.141276,7.07356771 32.5488281,7.43164062 C32.171224,7.65950521 31.6536458,7.84830729 30.9960938,7.99804688 C31.5234375,8.17382812 31.9075521,8.34960938 32.1484375,8.52539062 C32.3111979,8.64257812 32.5472005,8.89322917 32.8564453,9.27734375 C33.1656901,9.66145833 33.3723958,9.95768229 33.4765625,10.1660156 L35.6152344,14.3164062 L30.6152344,14.3164062 L28.2519531,9.94140625 C27.952474,9.375 27.6855469,9.00716146 27.4511719,8.83789062 C27.1321615,8.61653646 26.7708333,8.50585938 26.3671875,8.50585938 L25.9765625,8.50585938 L25.9765625,14.3164062 L21.5332031,14.3164062 Z M25.9765625,5.80078125 L27.8417969,5.80078125 C28.0436198,5.80078125 28.4342448,5.73567708 29.0136719,5.60546875 C29.3066406,5.546875 29.5458984,5.39713542 29.7314453,5.15625 C29.9169922,4.91536458 30.0097656,4.63867188 30.0097656,4.32617188 C30.0097656,3.86393229 29.8632812,3.50911458 29.5703125,3.26171875 C29.2773438,3.01432292 28.7272135,2.890625 27.9199219,2.890625 L25.9765625,2.890625 L25.9765625,5.80078125 Z" id="Shape"></path>
                        <polygon id="Path" points="37.2070312 0 41.640625 0 41.640625 14.3164062 37.2070312 14.3164062"></polygon>
                        <polygon id="Path" points="43.8085938 0 57.2558594 0 57.2558594 3.53515625 52.7441406 3.53515625 52.7441406 14.3164062 48.3203125 14.3164062 48.3203125 3.53515625 43.8085938 3.53515625"></polygon>
                        <polygon id="Path" points="59.2480469 0 71.1035156 0 71.1035156 3.05664062 63.6816406 3.05664062 63.6816406 5.33203125 70.5664062 5.33203125 70.5664062 8.25195312 63.6816406 8.25195312 63.6816406 11.0742188 71.3183594 11.0742188 71.3183594 14.3164062 59.2480469 14.3164062"></polygon>
                    </g>
                </g>
                <g id="WRI" mask="url(#mask-4)" fill="#F5DDFA" fill-rule="nonzero">
                    <g transform="translate(1.820312, 43.433594)">
                        <polygon id="Path" points="0 0 4.19921875 0 5.71289062 7.99804688 7.91992188 0 12.109375 0 14.3261719 7.99804688 15.8398438 0 20.0195312 0 16.8652344 14.3164062 12.5292969 14.3164062 10.0195312 5.30273438 7.51953125 14.3164062 3.18359375 14.3164062"></polygon>
                        <path d="M21.5332031,14.3164062 L21.5332031,0 L28.90625,0 C30.2734375,0 31.3183594,0.1171875 32.0410156,0.3515625 C32.7636719,0.5859375 33.3463542,1.02050781 33.7890625,1.65527344 C34.2317708,2.29003906 34.453125,3.06315104 34.453125,3.97460938 C34.453125,4.76888021 34.2838542,5.45410156 33.9453125,6.03027344 C33.6067708,6.60644531 33.141276,7.07356771 32.5488281,7.43164062 C32.171224,7.65950521 31.6536458,7.84830729 30.9960938,7.99804688 C31.5234375,8.17382812 31.9075521,8.34960938 32.1484375,8.52539062 C32.3111979,8.64257812 32.5472005,8.89322917 32.8564453,9.27734375 C33.1656901,9.66145833 33.3723958,9.95768229 33.4765625,10.1660156 L35.6152344,14.3164062 L30.6152344,14.3164062 L28.2519531,9.94140625 C27.952474,9.375 27.6855469,9.00716146 27.4511719,8.83789062 C27.1321615,8.61653646 26.7708333,8.50585938 26.3671875,8.50585938 L25.9765625,8.50585938 L25.9765625,14.3164062 L21.5332031,14.3164062 Z M25.9765625,5.80078125 L27.8417969,5.80078125 C28.0436198,5.80078125 28.4342448,5.73567708 29.0136719,5.60546875 C29.3066406,5.546875 29.5458984,5.39713542 29.7314453,5.15625 C29.9169922,4.91536458 30.0097656,4.63867188 30.0097656,4.32617188 C30.0097656,3.86393229 29.8632812,3.50911458 29.5703125,3.26171875 C29.2773438,3.01432292 28.7272135,2.890625 27.9199219,2.890625 L25.9765625,2.890625 L25.9765625,5.80078125 Z" id="Shape"></path>
                        <polygon id="Path" points="37.2070312 0 41.640625 0 41.640625 14.3164062 37.2070312 14.3164062"></polygon>
                    </g>
                </g>
            </g>
            <rect id="Rectangle" fill="#F5DDFA" x="45.5" y="40.05" width="1.5" height="21.4"></rect>
        </g>
    </g>
</svg>