<?xml version="1.0" encoding="UTF-8"?><svg version="1.1" width="1441px" height="2181px" viewBox="0 0 1441.0 2181.0" xmlns="http://www.w3.org/2000/svg" xmlns:xlink="http://www.w3.org/1999/xlink"><defs><clipPath id="i0"><path d="M1441,0 L1441,2181 L0,2181 L0,0 L1441,0 Z"></path></clipPath><clipPath id="i1"><path d="M1307.6942,0 L1441,517 L0,517 L131.776824,2.00863543 L1307.6942,0 Z"></path></clipPath><clipPath id="i2"><path d="M205,0 C318.218374,0 410,91.7816263 410,205 C410,318.218374 318.218374,410 205,410 C91.7816263,410 0,318.218374 0,205 C0,91.7816263 91.7816263,0 205,0 Z"></path></clipPath><clipPath id="i3"><path d="M165,0 C256.126984,0 330,73.8730163 330,165 C330,256.126984 256.126984,330 165,330 C73.8730163,330 0,256.126984 0,165 C0,73.8730163 73.8730163,0 165,0 Z"></path></clipPath><clipPath id="i4"><path d="M175.784333,18.0885045 C141.382016,21.7141036 70.1657661,53.3798493 38.4121395,116.621416 L37.7795765,117.882509 L36.5295075,120.382264 C16.4823409,160.553225 4.30583836,188.999274 0,205.720412 C2.48382834,132.866444 29.9387833,77.4033606 82.3648649,39.3311636 C115.582982,15.207928 161.176993,1.2257101 179.803395,0.0966058878 C205.272325,-1.44728195 195.654694,15.9944023 175.784333,18.0885045 Z"></path></clipPath><clipPath id="i5"><path d="M188.320632,0 C177.965607,38.7292806 155.071969,72.078979 119.639718,100.049095 C84.207468,128.019211 44.3275619,141.510437 0,140.522771 C40.7449662,124.104009 76.5293587,108.674052 107.353177,94.2328987 C153.588905,72.5711694 162.092849,39.7313799 168.066784,27.775779 C172.049407,19.8053784 178.800689,10.5467854 188.320632,0 Z"></path></clipPath><clipPath id="i6"><path d=""></path></clipPath></defs><g clip-path="url(#i0)"><g transform="translate(0.0 1568.0)"><g clip-path="url(#i1)"><polygon points="0,0 1441,0 1441,517 0,517 0,0" stroke="none" fill="#8D624A"></polygon></g></g><g transform="translate(516.0 1625.0)"><g clip-path="url(#i2)"><polygon points="0,0 410,0 410,410 0,410 0,0" stroke="none" fill="#888888"></polygon><path d="M205,410 C318.218374,410 410,318.218374 410,205 C410,91.7816263 318.218374,0 205,0 C91.7816263,0 0,91.7816263 0,205 C0,318.218374 91.7816263,410 205,410 Z" stroke="#888888" stroke-width="4" fill="none" stroke-miterlimit="5"></path></g></g><g transform="translate(556.0 1665.0)"><g clip-path="url(#i3)"><polygon points="0,0 330,0 330,330 0,330 0,0" stroke="none" fill="#FFC901"></polygon></g></g><g transform="translate(521.0772293795096 1632.692845757934)"><g clip-path="url(#i4)"><polygon points="0,5.55111512e-17 195.17066,5.55111512e-17 195.17066,205.720412 0,205.720412 0,5.55111512e-17" stroke="none" fill="#939393"></polygon></g></g><g transform="translate(720.9999999999998 1887.688099131281)"><g clip-path="url(#i5)"><polygon points="0,0 188.320632,0 188.320632,140.5733 0,140.5733 0,0" stroke="none" fill="#939393"></polygon></g></g><g transform="translate(701.7552079528022 0.5357678558007137)"><g clip-path="url(#i6)"><polygon points="0.5,0 0.5,0 0.5,112.464232 0.5,112.464232 0.5,0" stroke="none" fill="#9C7058"></polygon></g></g></g></svg>