<?xml version="1.0" encoding="UTF-8"?><svg version="1.1" width="142px" height="1338px" viewBox="0 0 142.0 1338.0" xmlns="http://www.w3.org/2000/svg" xmlns:xlink="http://www.w3.org/1999/xlink"><defs><clipPath id="i0"><path d="M142,0 L142,1338 L0,1338 L0,0 L142,0 Z"></path></clipPath><clipPath id="i1"><path d="M31,0 L35.965851,1329.8549 C35.9815544,1334.06027 32.5851567,1337.48213 28.3797844,1337.49783 C27.917141,1337.49956 27.4553027,1337.45912 27,1337.37701 C21.0480021,1336.30368 14.9519979,1336.30368 9,1337.37701 C4.86135365,1338.12334 0.901297501,1335.37333 0.154967028,1331.23468 C0.072861362,1330.77938 0.0324214355,1330.31754 0.0341490062,1329.8549 L5,0 L31,0 Z"></path></clipPath><clipPath id="i2"><path d="M57.7158608,0 L64.5372174,168.245785 L13.4803101,139.26718 L0,0 L57.7158608,0 Z"></path></clipPath><clipPath id="i3"><path d="M142,0 L142,30.4443584 L128,127 L14,127 L0,30.4443584 L0,0 L142,0 Z"></path></clipPath><clipPath id="i4"><path d="M7,0 L7,93 L0,48.7229476 L0,0 L7,0 Z"></path></clipPath></defs><g clip-path="url(#i0)"><g transform="translate(53.0 0.0)"><g clip-path="url(#i1)"><polygon points="0.0340959189,0 35.9659052,0 35.9659052,1337.49919 0.0340959189,1337.49919 0.0340959189,0" stroke="none" fill="#BFBFBF"></polygon><g transform="translate(-13.4803100563546 346.1088544817268)"><g clip-path="url(#i2)"><polygon points="13.514406,0 49.4462153,0 49.4462153,168.245785 13.514406,168.245785 13.514406,0" stroke="none" fill="#919191"></polygon></g></g></g></g><g transform="translate(0.0 355.0)"><g clip-path="url(#i3)"><polygon points="0,0 142,0 142,127 0,127 0,0" stroke="none" fill="#BFBFBF"></polygon><g transform="translate(39.0 -4.0)"><g clip-path="url(#i4)"><polygon points="0,4 7,4 7,93 0,93 0,4" stroke="none" fill="#919191"></polygon></g></g><g transform="translate(103.0 -4.0) scale(-1.0 1.0)"><g clip-path="url(#i4)"><polygon points="0,4 7,4 7,93 0,93 0,4" stroke="none" fill="#919191"></polygon></g></g></g></g><g transform="translate(12.0 374.0)"><path d="M8,16 C12.418278,16 16,12.418278 16,8 C16,3.581722 12.418278,0 8,0 C3.581722,0 0,3.581722 0,8 C0,12.418278 3.581722,16 8,16 Z" stroke="#919191" stroke-width="3" fill="none" stroke-miterlimit="10"></path></g><g transform="translate(19.0 378.0)"><path d="M1,0 L1,8" stroke="#919191" stroke-width="2" fill="none" stroke-linecap="square" stroke-miterlimit="10"></path></g><g transform="translate(16.0 381.0)"><path d="M8,1 L0,1" stroke="#919191" stroke-width="2" fill="none" stroke-linecap="square" stroke-miterlimit="10"></path></g><g transform="translate(114.0 374.0)"><path d="M8,16 C12.418278,16 16,12.418278 16,8 C16,3.581722 12.418278,0 8,0 C3.581722,0 0,3.581722 0,8 C0,12.418278 3.581722,16 8,16 Z" stroke="#919191" stroke-width="3" fill="none" stroke-miterlimit="10"></path></g><g transform="translate(121.0 378.0)"><path d="M1,0 L1,8" stroke="#919191" stroke-width="2" fill="none" stroke-linecap="square" stroke-miterlimit="10"></path></g><g transform="translate(118.0 381.0)"><path d="M8,1 L0,1" stroke="#919191" stroke-width="2" fill="none" stroke-linecap="square" stroke-miterlimit="10"></path></g></g></svg>