<?xml version="1.0" encoding="UTF-8"?><svg version="1.1" width="1441px" height="2181px" viewBox="0 0 1441.0 2181.0" xmlns="http://www.w3.org/2000/svg" xmlns:xlink="http://www.w3.org/1999/xlink"><defs><clipPath id="i0"><path d="M1441,0 L1441,2181 L0,2181 L0,0 L1441,0 Z"></path></clipPath><clipPath id="i1"><path d="M720,0 L902.700124,107.959985 L1440,2084.46423 L0,2084.46423 L537.299876,107.959985 L720,0 Z"></path></clipPath><clipPath id="i2"><path d="M1394,0 L1394,1366 L0,1366 L0,0 L1394,0 Z"></path></clipPath><clipPath id="i3"><path d="M513,0 L513,98 L0,98 L0,0 L513,0 Z"></path></clipPath><clipPath id="i4"><path d="M435,0 L435,182 L0,182 L0,0 L435,0 Z"></path></clipPath><clipPath id="i5"><path d="M447.062136,0 L501.259198,191.381074 L375.487693,83.1552628 L83.8038809,72.8737491 L12.4453549,13.7442694 L0,0 L447.062136,0 Z"></path></clipPath><clipPath id="i6"><path d="M1755,0 L1755,512 L0,512 L0,0 L1755,0 Z"></path></clipPath><clipPath id="i7"><path d="M640.791794,0 L1003.26689,1362.61879 L0,1362.61879 L364.187266,0 L640.791794,0 Z"></path></clipPath><clipPath id="i8"><path d="M338.034958,0 L656.607427,7.68567715 L686.501652,147.284147 L642.505508,113.147506 L362.042422,269.613686 L28.9865462,1375.0127 L338.034958,0 Z"></path></clipPath><clipPath id="i9"><path d="M139,0 L159,1375 L0,1375 L20,0 L139,0 Z"></path></clipPath><clipPath id="i10"><path d="M157.749584,0 L162.934784,135.708072 L13.6265834,220.002854 L0,0 L157.749584,0 Z"></path></clipPath><clipPath id="i11"><path d="M1307.6942,0 L1441,517 L0,517 L131.776824,2.00863543 L1307.6942,0 Z"></path></clipPath><clipPath id="i12"><path d="M66,0 L66,7 L0,7 L0,0 L66,0 Z"></path></clipPath><clipPath id="i13"><path d="M1.03970053,0 L52.4120722,4.41763969 L27.3345534,18.2672628 L0,18.2672628 L1.03970053,0 Z"></path></clipPath><clipPath id="i14"><path d="M205,0 C318.218374,0 410,91.7816263 410,205 C410,318.218374 318.218374,410 205,410 C91.7816263,410 0,318.218374 0,205 C0,91.7816263 91.7816263,0 205,0 Z"></path></clipPath><clipPath id="i15"><path d="M165,0 C256.126984,0 330,73.8730163 330,165 C330,256.126984 256.126984,330 165,330 C73.8730163,330 0,256.126984 0,165 C0,73.8730163 73.8730163,0 165,0 Z"></path></clipPath><clipPath id="i16"><path d="M295,0 L245,95 L50,95 L0,0 L295,0 Z"></path></clipPath><clipPath id="i17"><path d="M175.784333,18.0885045 C141.382016,21.7141036 70.1657661,53.3798493 38.4121395,116.621416 L37.7795765,117.882509 L36.5295075,120.382264 C16.4823409,160.553225 4.30583836,188.999274 0,205.720412 C2.48382834,132.866444 29.9387833,77.4033606 82.3648649,39.3311636 C115.582982,15.207928 161.176993,1.2257101 179.803395,0.0966058878 C205.272325,-1.44728195 195.654694,15.9944023 175.784333,18.0885045 Z"></path></clipPath><clipPath id="i18"><path d="M188.320632,0 C177.965607,38.7292806 155.071969,72.078979 119.639718,100.049095 C84.207468,128.019211 44.3275619,141.510437 0,140.522771 C40.7449662,124.104009 76.5293587,108.674052 107.353177,94.2328987 C153.588905,72.5711694 162.092849,39.7313799 168.066784,27.775779 C172.049407,19.8053784 178.800689,10.5467854 188.320632,0 Z"></path></clipPath></defs><g clip-path="url(#i0)"><g transform="translate(0.9999999999997726 0.5357678558007137)"><g clip-path="url(#i1)"><polygon points="0,0 1440,0 1440,2084.46423 0,2084.46423 0,0" stroke="none" fill="#D7D7D7"></polygon><g transform="translate(-39.99999999999977 206.4642321441993)"><g clip-path="url(#i2)"><polygon points="40,0 1394,0 1394,1366 40,1366 40,0" stroke="none" fill="#845A42"></polygon></g></g><g transform="translate(450.0000000000002 108.46423214419929)"><g clip-path="url(#i3)"><polygon points="0,0 513,0 513,98 0,98 0,0" stroke="none" fill="#8D624A"></polygon></g></g><g transform="translate(503.0000000000002 -68.53576785580071)"><g clip-path="url(#i4)"><polygon points="0,68.5357679 435,68.5357679 435,182 0,182 0,68.5357679" stroke="none" fill="#9C7058"></polygon></g></g><g transform="translate(490.5546450712 206.4642321441993)"><g clip-path="url(#i5)"><polygon points="0,0 501.259198,0 501.259198,191.381074 0,191.381074 0,0" stroke="none" fill="#6E4C37"></polygon></g></g><g transform="translate(-185.99999999999977 1572.4642321441993)"><g clip-path="url(#i6)"><polygon points="186,0 1626,0 1626,512 186,512 186,0" stroke="none" fill="#8D624A"></polygon></g></g></g></g><g transform="translate(218.5308962774402 212.37041635632636)"><g transform=""><g clip-path="url(#i7)"><polygon points="0,0 1003.26689,0 1003.26689,1362.61879 0,1362.61879 0,0" stroke="none" fill="#272628"></polygon><g transform=""><g transform="translate(5.829879573056758 -34.982145361320136)"><g clip-path="url(#i8)"><polygon points="0,34.9821454 686.501652,34.9821454 686.501652,1397.60094 0,1397.60094 0,34.9821454" stroke="none" fill="#202021"></polygon></g></g><g transform="translate(423.4691037225598 -13.37041635632636)"><g clip-path="url(#i9)"><polygon points="0,13.3704164 159,13.3704164 159,1375 0,1375 0,13.3704164" stroke="none" fill="#4A494B"></polygon><g transform="translate(-4.023356824984148 -10.118914552487126)"><g clip-path="url(#i10)"><polygon points="4.02335682,23.4893309 162.934784,23.4893309 162.934784,220.002854 4.02335682,220.002854 4.02335682,23.4893309" stroke="none" fill="#3E3D3E"></polygon></g></g></g></g></g></g></g></g><g transform="translate(0.0 1568.0)"><g clip-path="url(#i11)"><polygon points="0,0 1441,0 1441,517 0,517 0,0" stroke="none" fill="#8D624A"></polygon></g></g><g transform="translate(678.0 220.0)"><g transform="translate(14.0 0.0)"><path d="M0.5,0.5 L57.5,0.5" stroke="#4D4C4D" stroke-width="7" fill="none" stroke-linecap="square" stroke-miterlimit="10"></path></g><g transform="translate(14.0 20.0)"><path d="M0.5,0.5 L57.5,0.5" stroke="#4D4C4D" stroke-width="7" fill="none" stroke-linecap="square" stroke-miterlimit="10"></path></g><g transform="translate(14.0 42.0)"><path d="M0.5,0.5 L57.5,0.5" stroke="#4D4C4D" stroke-width="7" fill="none" stroke-linecap="square" stroke-miterlimit="10"></path></g><g transform="translate(14.0 66.0)"><path d="M0.5,0.5 L57.5,0.5" stroke="#4D4C4D" stroke-width="7" fill="none" stroke-linecap="square" stroke-miterlimit="10"></path></g><g transform="translate(14.0 94.0)"><path d="M0.5,0.5 L57.5,0.5" stroke="#4D4C4D" stroke-width="7" fill="none" stroke-linecap="square" stroke-miterlimit="10"></path></g><g transform="translate(14.0 124.0)"><path d="M0.5,0.5 L57.5,0.5" stroke="#4D4C4D" stroke-width="7" fill="none" stroke-linecap="square" stroke-miterlimit="10"></path></g><g transform="translate(13.0 181.0)"><path d="M0.5,0.5 L59.5,0.5" stroke="#5C5B5D" stroke-width="7" fill="none" stroke-linecap="square" stroke-miterlimit="10"></path></g><g transform="translate(13.0 217.0)"><path d="M0.5,0.5 L59.5,0.5" stroke="#5C5B5D" stroke-width="7" fill="none" stroke-linecap="square" stroke-miterlimit="10"></path></g><g transform="translate(12.0 256.0)"><path d="M0.5,0.5 L61.5,0.5" stroke="#5C5B5D" stroke-width="7" fill="none" stroke-linecap="square" stroke-miterlimit="10"></path></g><g transform="translate(12.0 294.0)"><path d="M0.5,0.5 L61.5,0.5" stroke="#5C5B5D" stroke-width="7" fill="none" stroke-linecap="square" stroke-miterlimit="10"></path></g><g transform="translate(12.0 338.0)"><path d="M0.5,0.5 L61.5,0.5" stroke="#5C5B5D" stroke-width="7" fill="none" stroke-linecap="square" stroke-miterlimit="10"></path></g><g transform="translate(11.0 397.0)"><path d="M0.5,0.5 L64.5,0.5" stroke="#5C5B5D" stroke-width="7" fill="none" stroke-linecap="square" stroke-miterlimit="10"></path></g><g transform="translate(9.0 453.0)"><path d="M0.5,0.5 L67.5,0.5" stroke="#5C5B5D" stroke-width="7" fill="none" stroke-linecap="square" stroke-miterlimit="10"></path></g><g transform="translate(8.0 515.0)"><path d="M0.5,0.5 L69.5,0.5" stroke="#5C5B5D" stroke-width="7" fill="none" stroke-linecap="square" stroke-miterlimit="10"></path></g><g transform="translate(9.0 576.0)"><path d="M0.5,0.5 L69.5,0.5" stroke="#5C5B5D" stroke-width="7" fill="none" stroke-linecap="square" stroke-miterlimit="10"></path></g><g transform="translate(9.0 641.0)"><path d="M0.5,0.5 L69.5,0.5" stroke="#5C5B5D" stroke-width="7" fill="none" stroke-linecap="square" stroke-miterlimit="10"></path></g><g transform="translate(7.0 714.0)"><path d="M0.5,0.5 L74.5,0.5" stroke="#5C5B5D" stroke-width="7" fill="none" stroke-linecap="square" stroke-miterlimit="10"></path></g><g transform="translate(7.0 802.0)"><path d="M0.5,0.5 L74.5,0.5" stroke="#5C5B5D" stroke-width="7" fill="none" stroke-linecap="square" stroke-miterlimit="10"></path></g><g transform="translate(5.0 886.0)"><path d="M0.5,0.5 L79.5,0.5" stroke="#5C5B5D" stroke-width="7" fill="none" stroke-linecap="square" stroke-miterlimit="10"></path></g><g transform="translate(5.0 992.0)"><path d="M0.5,0.5 L79.5,0.5" stroke="#5C5B5D" stroke-width="7" fill="none" stroke-linecap="square" stroke-miterlimit="10"></path></g><g transform="translate(2.0 1120.0)"><path d="M0.5,0.5 L86.5,0.5" stroke="#5C5B5D" stroke-width="7" fill="none" stroke-linecap="square" stroke-miterlimit="10"></path></g><g transform="translate(0.0 1271.0)"><path d="M0.5,0.5 L90.5,0.5" stroke="#5C5B5D" stroke-width="7" fill="none" stroke-linecap="square" stroke-miterlimit="10"></path></g></g><g transform="translate(688.0 369.0)"><g clip-path="url(#i12)"><polygon points="0,0 66,0 66,7 0,7 0,0" stroke="none" fill="#5C5B5D"></polygon><g transform="translate(-6.735499268061972 -9.29168551470525)"><g clip-path="url(#i13)"><polygon points="6.73549927,9.29168551 52.4120722,9.29168551 52.4120722,16.2916855 6.73549927,16.2916855 6.73549927,9.29168551" stroke="none" fill="#4D4C4D"></polygon></g></g></g></g><g transform="translate(516.0 1625.0)"><g clip-path="url(#i14)"><polygon points="0,0 410,0 410,410 0,410 0,0" stroke="none" fill="#888888"></polygon><path d="M205,410 C318.218374,410 410,318.218374 410,205 C410,91.7816263 318.218374,0 205,0 C91.7816263,0 0,91.7816263 0,205 C0,318.218374 91.7816263,410 205,410 Z" stroke="#888888" stroke-width="4" fill="none" stroke-miterlimit="5"></path></g></g><g transform="translate(556.0 1665.0)"><g clip-path="url(#i15)"><polygon points="0,0 330,0 330,330 0,330 0,0" stroke="none" fill="#FFC901"></polygon></g></g><g transform="translate(72.0 2085.0)"><g clip-path="url(#i16)"><polygon points="0,0 295,0 295,95 0,95 0,0" stroke="none" fill="#272628"></polygon></g></g><g transform="translate(1074.0 2085.0)"><g clip-path="url(#i16)"><polygon points="0,0 295,0 295,95 0,95 0,0" stroke="none" fill="#262628"></polygon></g></g><g transform="translate(521.0772293795096 1632.6928457579336)"><g clip-path="url(#i17)"><polygon points="0,5.55111512e-17 195.17066,5.55111512e-17 195.17066,205.720412 0,205.720412 0,5.55111512e-17" stroke="none" fill="#939393"></polygon></g></g><g transform="translate(720.9999999999998 1887.688099131281)"><g clip-path="url(#i18)"><polygon points="0,0 188.320632,0 188.320632,140.5733 0,140.5733 0,0" stroke="none" fill="#939393"></polygon></g></g></g></svg>